<?xml version="1.0" encoding="UTF-8"?>
<!DOCTYPE svg PUBLIC "-//W3C//DTD SVG 1.1//EN" "http://www.w3.org/Graphics/SVG/1.1/DTD/svg11.dtd">
<svg xmlns="http://www.w3.org/2000/svg" version="1.1" width="319px" height="227px" style="shape-rendering:geometricPrecision; text-rendering:geometricPrecision; image-rendering:optimizeQuality; fill-rule:evenodd; clip-rule:evenodd" xmlns:xlink="http://www.w3.org/1999/xlink">
<g><path style="opacity:0.004" fill="#fefffe" d="M 15.5,15.5 C 14.8333,14.1667 14.8333,14.1667 15.5,15.5 Z"/></g>
<g><path style="opacity:0.342" fill="#eac7bc" d="M 301.5,15.5 C 301.5,16.1667 301.833,16.5 302.5,16.5C 303.039,33.1585 303.372,49.8252 303.5,66.5C 302.764,68.2294 301.43,69.2294 299.5,69.5C 301.605,52.3325 302.105,34.9992 301,17.5C 300.617,16.944 300.117,16.6107 299.5,16.5C 205.668,15.3342 111.668,15.1676 17.5,16C 16.944,16.3826 16.6107,16.8826 16.5,17.5C 15.5036,33.3246 15.1703,49.3246 15.5,65.5C 14.5037,50.0089 14.1704,34.3422 14.5,18.5C 14.5569,17.391 14.8902,16.391 15.5,15.5C 110.833,14.1667 206.167,14.1667 301.5,15.5 Z"/></g>
<g><path style="opacity:0.004" fill="#fefffe" d="M 301.5,15.5 C 302.251,14.4265 303.251,14.2599 304.5,15C 303.944,15.3826 303.611,15.8826 303.5,16.5C 303.167,16.5 302.833,16.5 302.5,16.5C 301.833,16.5 301.5,16.1667 301.5,15.5 Z"/></g>
<g><path style="opacity:0.99" fill="#e6816d" d="M 299.5,16.5 C 205.126,16.1716 110.793,16.5049 16.5,17.5C 16.6107,16.8826 16.944,16.3826 17.5,16C 111.668,15.1676 205.668,15.3342 299.5,16.5 Z"/></g>
<g><path style="opacity:1" fill="#fc6b4f" d="M 299.5,16.5 C 300.117,16.6107 300.617,16.944 301,17.5C 302.105,34.9992 301.605,52.3325 299.5,69.5C 205.5,69.5 111.5,69.5 17.5,69.5C 17.2671,67.9382 16.6005,66.6049 15.5,65.5C 15.1703,49.3246 15.5036,33.3246 16.5,17.5C 110.793,16.5049 205.126,16.1716 299.5,16.5 Z"/></g>
<g><path style="opacity:0.004" fill="#fefffe" d="M 303.5,16.5 C 304.833,17.1667 304.833,17.1667 303.5,16.5 Z"/></g>
<g><path style="opacity:0.042" fill="#faf7f6" d="M 14.5,18.5 C 14.1704,34.3422 14.5037,50.0089 15.5,65.5C 16.6005,66.6049 17.2671,67.9382 17.5,69.5C 16.8333,69.5 16.1667,69.5 15.5,69.5C 15.0133,68.5266 14.5133,67.5266 14,66.5C 13.1719,50.328 13.3386,34.328 14.5,18.5 Z"/></g>
<g><path style="opacity:0.004" fill="#fefffe" d="M 303.5,66.5 C 304.833,67.1667 304.833,67.1667 303.5,66.5 Z"/></g>
<g><path style="opacity:0.004" fill="#fefffe" d="M 15.5,69.5 C 14.8333,70.1667 14.8333,70.1667 15.5,69.5 Z"/></g>
<g><path style="opacity:0.004" fill="#fefffe" d="M 14.5,70.5 C 14.5,70.8333 14.5,71.1667 14.5,71.5C 13.8299,71.0187 13.8299,70.6853 14.5,70.5 Z"/></g>
<g><path style="opacity:0.004" fill="#fefffe" d="M 14.5,71.5 C 15.8333,72.1667 15.8333,72.1667 14.5,71.5 Z"/></g>
<g><path style="opacity:0.004" fill="#fefffe" d="M 17.5,71.5 C 18.8333,72.1667 18.8333,72.1667 17.5,71.5 Z"/></g>
<g><path style="opacity:0.004" fill="#fefffe" d="M 21.5,71.5 C 22.8333,72.1667 22.8333,72.1667 21.5,71.5 Z"/></g>
<g><path style="opacity:0.004" fill="#fefffe" d="M 27.5,71.5 C 28.8333,72.1667 28.8333,72.1667 27.5,71.5 Z"/></g>
<g><path style="opacity:0.004" fill="#fefffe" d="M 52.5,72.5 C 52.8966,71.475 53.5632,71.3083 54.5,72C 53.9056,72.4643 53.2389,72.631 52.5,72.5 Z"/></g>
<g><path style="opacity:0.004" fill="#fefffe" d="M 65.5,71.5 C 66.8333,72.1667 66.8333,72.1667 65.5,71.5 Z"/></g>
<g><path style="opacity:0.004" fill="#fefffe" d="M 82.5,72.5 C 82.8966,71.475 83.5632,71.3083 84.5,72C 83.9056,72.4643 83.2389,72.631 82.5,72.5 Z"/></g>
<g><path style="opacity:0.004" fill="#fefffe" d="M 102.5,71.5 C 103.833,72.1667 103.833,72.1667 102.5,71.5 Z"/></g>
<g><path style="opacity:0.004" fill="#fefffe" d="M 248.5,71.5 C 249.833,72.1667 249.833,72.1667 248.5,71.5 Z"/></g>
<g><path style="opacity:0.004" fill="#fefffe" d="M 251.5,72.5 C 251.897,71.475 252.563,71.3083 253.5,72C 252.906,72.4643 252.239,72.631 251.5,72.5 Z"/></g>
<g><path style="opacity:0.004" fill="#fefffe" d="M 256.5,71.5 C 257.833,72.1667 257.833,72.1667 256.5,71.5 Z"/></g>
<g><path style="opacity:0.004" fill="#fefffe" d="M 267.5,71.5 C 268.833,72.1667 268.833,72.1667 267.5,71.5 Z"/></g>
<g><path style="opacity:0.004" fill="#fefffe" d="M 282.5,71.5 C 283.833,72.1667 283.833,72.1667 282.5,71.5 Z"/></g>
<g><path style="opacity:0.004" fill="#fefffe" d="M 288.5,71.5 C 289.833,72.1667 289.833,72.1667 288.5,71.5 Z"/></g>
<g><path style="opacity:0.004" fill="#fefffe" d="M 15.5,100.5 C 13.9719,100.483 13.4719,99.816 14,98.5C 14.7172,99.0442 15.2172,99.7109 15.5,100.5 Z"/></g>
<g><path style="opacity:0.004" fill="#fefffe" d="M 17.5,99.5 C 16.8333,98.1667 16.8333,98.1667 17.5,99.5 Z"/></g>
<g><path style="opacity:0.004" fill="#fefffe" d="M 299.5,98.5 C 300.833,99.1667 300.833,99.1667 299.5,98.5 Z"/></g>
<g><path style="opacity:0.004" fill="#fefffe" d="M 303.5,98.5 C 304.613,99.9464 304.78,101.613 304,103.5C 303.506,101.866 303.34,100.199 303.5,98.5 Z"/></g>
<g><path style="opacity:1" fill="#97bfc9" d="M 17.5,99.5 C 111.5,99.5 205.5,99.5 299.5,99.5C 299.5,99.8333 299.5,100.167 299.5,100.5C 299.5,100.833 299.5,101.167 299.5,101.5C 205.126,101.172 110.793,101.505 16.5,102.5C 16.8333,101.833 17.1667,101.167 17.5,100.5C 17.5,100.167 17.5,99.8333 17.5,99.5 Z"/></g>
<g><path style="opacity:1" fill="#4cadc5" d="M 299.5,101.5 C 300.117,101.611 300.617,101.944 301,102.5C 301.5,118.83 301.667,135.163 301.5,151.5C 301.047,152.458 300.381,153.292 299.5,154C 235.999,154.167 172.665,154.667 109.5,155.5C 106.328,157.252 103.328,159.252 100.5,161.5C 98.7697,162.026 97.4363,163.026 96.5,164.5C 90.9946,166.749 85.9946,169.749 81.5,173.5C 80.5084,173.328 79.8417,173.662 79.5,174.5C 77.7697,175.026 76.4363,176.026 75.5,177.5C 72.6689,178.079 70.3356,179.412 68.5,181.5C 66.3379,181.897 65.0046,183.231 64.5,185.5C 63.8333,185.167 63.1667,184.833 62.5,184.5C 60.5808,185.612 58.9142,186.946 57.5,188.5C 54.9162,189.048 53.9162,190.715 54.5,193.5C 53.448,193.649 52.448,193.483 51.5,193C 52.9561,192.577 53.4561,191.744 53,190.5C 52.3292,191.252 51.4959,191.586 50.5,191.5C 47.6589,192.224 44.9922,193.39 42.5,195C 36.6695,199.083 30.6695,202.916 24.5,206.5C 23.7025,206.957 23.3691,207.624 23.5,208.5C 20.8333,209.5 18.1667,210.5 15.5,211.5C 15.1682,174.996 15.5016,138.663 16.5,102.5C 110.793,101.505 205.126,101.172 299.5,101.5 Z"/></g>
<g><path style="opacity:0.004" fill="#fefffe" d="M 303.5,104.5 C 304.833,105.167 304.833,105.167 303.5,104.5 Z"/></g>
<g><path style="opacity:0.004" fill="#fefffe" d="M 303.5,112.5 C 304.833,113.167 304.833,113.167 303.5,112.5 Z"/></g>
<g><path style="opacity:0.306" fill="#a3deea" d="M 299.5,101.5 C 299.5,101.167 299.5,100.833 299.5,100.5C 300.496,100.414 301.329,100.748 302,101.5C 302.436,103.847 302.936,106.181 303.5,108.5C 302.533,122.804 302.2,137.137 302.5,151.5C 302.167,151.5 301.833,151.5 301.5,151.5C 301.667,135.163 301.5,118.83 301,102.5C 300.617,101.944 300.117,101.611 299.5,101.5 Z"/></g>
<g><path style="opacity:0.004" fill="#fefffe" d="M 303.5,149.5 C 304.573,150.251 304.74,151.251 304,152.5C 303.517,151.552 303.351,150.552 303.5,149.5 Z"/></g>
<g><path style="opacity:0.004" fill="#fefffe" d="M 302.5,153.5 C 303.239,153.369 303.906,153.536 304.5,154C 303.167,154.667 303.167,155.333 304.5,156C 302.939,156.188 302.272,155.355 302.5,153.5 Z"/></g>
<g><path style="opacity:0.174" fill="#afb1b3" d="M 301.5,151.5 C 301.833,151.5 302.167,151.5 302.5,151.5C 302.5,152.167 302.5,152.833 302.5,153.5C 300.683,154.219 300.016,155.219 300.5,156.5C 236.943,155.541 173.277,155.208 109.5,155.5C 172.665,154.667 235.999,154.167 299.5,154C 300.381,153.292 301.047,152.458 301.5,151.5 Z"/></g>
<g><path style="opacity:0.004" fill="#fefffe" d="M 104.5,159.5 C 105.833,160.167 105.833,160.167 104.5,159.5 Z"/></g>
<g><path style="opacity:0.004" fill="#fefffe" d="M 108.5,159.5 C 109.833,160.167 109.833,160.167 108.5,159.5 Z"/></g>
<g><path style="opacity:0.004" fill="#fefffe" d="M 100.5,161.5 C 101.289,161.783 101.956,162.283 102.5,163C 101.184,163.528 100.517,163.028 100.5,161.5 Z"/></g>
<g><path style="opacity:0.004" fill="#fefffe" d="M 96.5,164.5 C 97.8333,165.167 97.8333,165.167 96.5,164.5 Z"/></g>
<g><path style="opacity:0.022" fill="#fcfdfd" d="M 14.5,166.5 C 14.5,181.833 14.5,197.167 14.5,212.5C 15.8333,212.5 17.1667,212.5 18.5,212.5C 17.2196,213.931 15.5529,214.598 13.5,214.5C 13.1703,198.325 13.5036,182.325 14.5,166.5 Z"/></g>
<g><path style="opacity:0.004" fill="#fefffe" d="M 89.5,169.5 C 91.3786,169.393 91.7119,169.893 90.5,171C 87.1247,171.632 86.7913,171.132 89.5,169.5 Z"/></g>
<g><path style="opacity:0.004" fill="#fefffe" d="M 81.5,173.5 C 82.2389,173.369 82.9056,173.536 83.5,174C 82.5632,174.692 81.8966,174.525 81.5,173.5 Z"/></g>
<g><path style="opacity:0.004" fill="#fefffe" d="M 79.5,174.5 C 80.8333,175.167 80.8333,175.167 79.5,174.5 Z"/></g>
<g><path style="opacity:0.459" fill="#c7dde4" d="M 15.5,100.5 C 16.1667,100.5 16.8333,100.5 17.5,100.5C 17.1667,101.167 16.8333,101.833 16.5,102.5C 15.5016,138.663 15.1682,174.996 15.5,211.5C 18.1667,210.5 20.8333,209.5 23.5,208.5C 23.1667,209.167 22.8333,209.833 22.5,210.5C 20.9382,210.733 19.6049,211.4 18.5,212.5C 17.1667,212.5 15.8333,212.5 14.5,212.5C 14.5,197.167 14.5,181.833 14.5,166.5C 14.5491,147.072 14.2157,127.572 13.5,108C 13.668,105.335 14.3347,102.835 15.5,100.5 Z"/></g>
<g><path style="opacity:0.004" fill="#fefffe" d="M 75.5,177.5 C 76.8333,178.167 76.8333,178.167 75.5,177.5 Z"/></g>
<g><path style="opacity:0.004" fill="#fefffe" d="M 71.5,181.5 C 71.7828,180.711 72.2828,180.044 73,179.5C 73.5281,180.816 73.0281,181.483 71.5,181.5 Z"/></g>
<g><path style="opacity:0.004" fill="#fefffe" d="M 68.5,181.5 C 69.8333,182.167 69.8333,182.167 68.5,181.5 Z"/></g>
<g><path style="opacity:0.004" fill="#fefffe" d="M 71.5,181.5 C 70.8333,182.167 70.8333,182.167 71.5,181.5 Z"/></g>
<g><path style="opacity:0.004" fill="#fefffe" d="M 59.5,187.5 C 60.8333,188.167 60.8333,188.167 59.5,187.5 Z"/></g>
<g><path style="opacity:0.004" fill="#fefffe" d="M 57.5,188.5 C 58.8333,189.167 58.8333,189.167 57.5,188.5 Z"/></g>
<g><path style="opacity:0.004" fill="#fefffe" d="M 49.5,194.5 C 50.8333,195.167 50.8333,195.167 49.5,194.5 Z"/></g>
<g><path style="opacity:0.004" fill="#fefffe" d="M 42.5,198.5 C 43.8333,199.167 43.8333,199.167 42.5,198.5 Z"/></g>
<g><path style="opacity:0.165" fill="#a4bac0" d="M 50.5,191.5 C 42.014,197.914 33.014,203.58 23.5,208.5C 23.3691,207.624 23.7025,206.957 24.5,206.5C 30.6695,202.916 36.6695,199.083 42.5,195C 44.9922,193.39 47.6589,192.224 50.5,191.5 Z"/></g>
<g><path style="opacity:0.004" fill="#fefffe" d="M 42.5,199.5 C 41.8333,200.167 41.8333,200.167 42.5,199.5 Z"/></g>
<g><path style="opacity:0.004" fill="#fefffe" d="M 35.5,202.5 C 36.7733,203.077 36.7733,203.743 35.5,204.5C 34.537,204.03 34.537,203.363 35.5,202.5 Z"/></g>
<g><path style="opacity:0.004" fill="#fefffe" d="M 30.5,207.5 C 30.5173,205.972 31.184,205.472 32.5,206C 31.9558,206.717 31.2891,207.217 30.5,207.5 Z"/></g>
<g><path style="opacity:0.004" fill="#fefffe" d="M 30.5,207.5 C 29.8333,208.167 29.8333,208.167 30.5,207.5 Z"/></g>
<g><path style="opacity:0.004" fill="#fefffe" d="M 22.5,210.5 C 23.552,210.351 24.552,210.517 25.5,211C 24.2506,211.74 23.2506,211.573 22.5,210.5 Z"/></g>
<g><path style="opacity:0.004" fill="#fefffe" d="M 19.5,213.5 C 20.8333,214.167 20.8333,214.167 19.5,213.5 Z"/></g>
</svg>
