<?xml version="1.0" encoding="UTF-8"?>
<!DOCTYPE svg PUBLIC "-//W3C//DTD SVG 1.1//EN" "http://www.w3.org/Graphics/SVG/1.1/DTD/svg11.dtd">
<svg xmlns="http://www.w3.org/2000/svg" version="1.1" width="501px" height="442px" style="shape-rendering:geometricPrecision; text-rendering:geometricPrecision; image-rendering:optimizeQuality; fill-rule:evenodd; clip-rule:evenodd" xmlns:xlink="http://www.w3.org/1999/xlink">
<g><path style="opacity:1" fill="#fc6d50" d="M 388.5,51.5 C 388.461,52.7562 388.961,53.7562 390,54.5C 390.5,72.1635 390.667,89.8302 390.5,107.5C 390.5,108.167 390.167,108.5 389.5,108.5C 291.166,108.667 192.833,108.5 94.5,108C 93.9558,107.283 93.2891,106.783 92.5,106.5C 91.3382,89.3382 91.1715,72.0049 92,54.5C 92.5,52.6667 93.6667,51.5 95.5,51C 193.237,50.1693 290.903,50.336 388.5,51.5 Z"/></g>
<g><path style="opacity:0.315" fill="#e0bab2" d="M 388.5,51.5 C 389.458,51.9528 390.292,52.6195 391,53.5C 391.829,71.6714 391.662,89.6714 390.5,107.5C 390.667,89.8302 390.5,72.1635 390,54.5C 388.961,53.7562 388.461,52.7562 388.5,51.5 Z"/></g>
<g><path style="opacity:0.777" fill="#c98778" d="M 92.5,106.5 C 93.2891,106.783 93.9558,107.283 94.5,108C 192.833,108.5 291.166,108.667 389.5,108.5C 389.082,109.222 388.416,109.722 387.5,110C 290.167,110.667 192.833,110.667 95.5,110C 93.5743,109.578 92.5743,108.411 92.5,106.5 Z"/></g>
<g><path style="opacity:0.514" fill="#98cedd" d="M 388.5,143.5 C 290.126,143.171 191.793,143.505 93.5,144.5C 93.6107,143.883 93.944,143.383 94.5,143C 192.668,142.168 290.668,142.334 388.5,143.5 Z"/></g>
<g><path style="opacity:1" fill="#4eacc5" d="M 388.5,143.5 C 389.458,143.953 390.292,144.619 391,145.5C 391.667,163.167 391.667,180.833 391,198.5C 390.097,199.701 388.931,200.535 387.5,201C 321.833,201.333 256.167,201.667 190.5,202C 159.167,222 127.833,242 96.5,262C 94.9751,263.009 93.3084,263.509 91.5,263.5C 91.3333,224.499 91.5,185.499 92,146.5C 92.2784,145.584 92.7784,144.918 93.5,144.5C 191.793,143.505 290.126,143.171 388.5,143.5 Z"/></g>
<g><path style="opacity:0.307" fill="#b4b4b4" d="M 45.5,311.5 C 40.0227,310.298 34.6894,310.298 29.5,311.5C 29.1667,311.5 28.8333,311.5 28.5,311.5C 30.5706,310.191 33.0706,309.525 36,309.5C 38.5,309.667 41,309.833 43.5,310C 44.4158,310.278 45.0825,310.778 45.5,311.5 Z"/></g>
<g><path style="opacity:0.31" fill="#b4b4b4" d="M 389.5,311.5 C 384.023,310.298 378.689,310.298 373.5,311.5C 373.167,311.5 372.833,311.5 372.5,311.5C 374.571,310.191 377.071,309.525 380,309.5C 382.5,309.667 385,309.833 387.5,310C 388.416,310.278 389.082,310.778 389.5,311.5 Z"/></g>
<g><path style="opacity:1" fill="#121212" d="M 29.5,311.5 C 34.6894,310.298 40.0227,310.298 45.5,311.5C 47.2624,312.262 48.2624,313.596 48.5,315.5C 48.0506,322.248 44.3839,324.915 37.5,323.5C 37.5,326.167 37.5,328.833 37.5,331.5C 37.5,331.833 37.5,332.167 37.5,332.5C 37.6107,333.117 37.944,333.617 38.5,334C 35.3035,334.805 32.3035,334.638 29.5,333.5C 30.5,333.5 31.5,333.5 32.5,333.5C 32.5,326.167 32.5,318.833 32.5,311.5C 31.5,311.5 30.5,311.5 29.5,311.5 Z M 41.5,320.5 C 40.5,320.5 39.5,320.5 38.5,320.5C 39.4376,315.233 40.4376,315.233 41.5,320.5 Z"/></g>
<g><path style="opacity:1" fill="#121212" d="M 67.5,310.5 C 68.609,310.557 69.609,310.89 70.5,311.5C 70.427,313.027 71.0937,314.027 72.5,314.5C 72.5447,318.578 70.878,321.744 67.5,324C 67.6387,325.301 68.3054,326.134 69.5,326.5C 69.427,328.027 70.0937,329.027 71.5,329.5C 73.2722,331.29 75.2722,332.623 77.5,333.5C 74.9759,334.8 72.3092,334.8 69.5,333.5C 67.1829,329.854 64.5162,326.52 61.5,323.5C 61.1667,325.167 60.8333,326.833 60.5,328.5C 60.5561,330.64 61.2227,332.306 62.5,333.5C 62.8333,333.5 63.1667,333.5 63.5,333.5C 60.6965,334.638 57.6965,334.805 54.5,334C 55.056,333.617 55.3893,333.117 55.5,332.5C 56.8333,325.833 56.8333,319.167 55.5,312.5C 54.7375,311.732 53.7375,311.232 52.5,311C 57.4889,310.501 62.4889,310.334 67.5,310.5 Z M 65.5,320.5 C 65.1667,320.5 64.8333,320.5 64.5,320.5C 63.5,320.5 62.5,320.5 61.5,320.5C 62.2411,315.497 63.5744,315.497 65.5,320.5 Z"/></g>
<g><path style="opacity:1" fill="#2b2b2b" d="M 105.5,333.5 C 102.5,334.833 99.5,334.833 96.5,333.5C 97.4972,333.53 98.1639,333.03 98.5,332C 98.45,327.614 96.2833,325.781 92,326.5C 88.5037,326.15 86.6703,327.65 86.5,331C 86.6842,332.376 87.3509,333.209 88.5,333.5C 85.8333,334.833 83.1667,334.833 80.5,333.5C 84.5611,325.045 88.8944,316.712 93.5,308.5C 97.4912,316.79 101.491,325.123 105.5,333.5 Z"/></g>
<g><path style="opacity:1" fill="#131313" d="M 121.5,333.5 C 121.833,333.5 122.167,333.5 122.5,333.5C 118.833,334.833 115.167,334.833 111.5,333.5C 112.5,333.5 113.5,333.5 114.5,333.5C 114.5,326.5 114.5,319.5 114.5,312.5C 110.842,311.68 108.509,313.013 107.5,316.5C 106.534,314.604 106.201,312.604 106.5,310.5C 113.5,310.5 120.5,310.5 127.5,310.5C 127.799,312.604 127.466,314.604 126.5,316.5C 125.491,313.013 123.158,311.68 119.5,312.5C 118.872,319.913 119.539,326.913 121.5,333.5 Z"/></g>
<g><path style="opacity:1" fill="#131313" d="M 154.5,317.5 C 154.5,322.5 154.5,327.5 154.5,332.5C 154.611,333.117 154.944,333.617 155.5,334C 152.304,334.805 149.304,334.638 146.5,333.5C 146.833,333.5 147.167,333.5 147.5,333.5C 149.402,330.663 150.069,327.329 149.5,323.5C 146.167,323.5 142.833,323.5 139.5,323.5C 138.931,327.329 139.598,330.663 141.5,333.5C 141.833,333.5 142.167,333.5 142.5,333.5C 139.167,334.833 135.833,334.833 132.5,333.5C 132.842,332.662 133.508,332.328 134.5,332.5C 135.654,326.013 135.821,319.346 135,312.5C 133.933,311.809 132.766,311.309 131.5,311C 136.443,310.039 139.11,310.205 139.5,311.5C 139.5,314.833 139.5,318.167 139.5,321.5C 142.833,321.5 146.167,321.5 149.5,321.5C 149.5,318.167 149.5,314.833 149.5,311.5C 151.167,310.167 152.833,310.167 154.5,311.5C 154.5,313.5 154.5,315.5 154.5,317.5 Z M 143.5,313.5 C 146.636,314.434 148.302,316.601 148.5,320C 145.854,320.497 143.187,320.664 140.5,320.5C 140.273,317.562 141.273,315.229 143.5,313.5 Z"/></g>
<g><path style="opacity:1" fill="#2a2a2a" d="M 186.5,333.5 C 183.5,334.833 180.5,334.833 177.5,333.5C 178.497,333.53 179.164,333.03 179.5,332C 179.108,328.037 176.941,326.203 173,326.5C 168.584,326.63 166.417,328.963 166.5,333.5C 167.5,333.5 168.5,333.5 169.5,333.5C 166.833,334.833 164.167,334.833 161.5,333.5C 164.215,329.019 166.549,324.352 168.5,319.5C 169.338,319.158 169.672,318.492 169.5,317.5C 169.5,316.833 169.5,316.167 169.5,315.5C 170.464,312.926 171.964,310.592 174,308.5C 174.667,309.167 175.333,309.833 176,310.5C 179.03,318.441 182.53,326.108 186.5,333.5 Z"/></g>
<g><path style="opacity:1" fill="#1d1d1d" d="M 199.5,311.5 C 201.954,316.408 204.454,321.408 207,326.5C 209.039,320.851 211.539,315.518 214.5,310.5C 217.187,310.336 219.854,310.503 222.5,311C 221.552,311.483 220.552,311.649 219.5,311.5C 219.5,318.833 219.5,326.167 219.5,333.5C 220.5,333.5 221.5,333.5 222.5,333.5C 218.833,334.833 215.167,334.833 211.5,333.5C 211.833,333.5 212.167,333.5 212.5,333.5C 213.814,331.085 214.481,328.252 214.5,325C 214.333,322.167 214.167,319.333 214,316.5C 211.529,322.085 209.362,327.752 207.5,333.5C 206.176,334.85 205.176,334.683 204.5,333C 202.623,328.084 200.623,323.25 198.5,318.5C 198.539,317.244 198.039,316.244 197,315.5C 196.182,321.349 196.348,327.015 197.5,332.5C 197.209,333.649 196.376,334.316 195,334.5C 192.641,334.676 192.141,334.009 193.5,332.5C 194.654,326.013 194.821,319.346 194,312.5C 192.933,311.809 191.766,311.309 190.5,311C 193.592,310.264 196.592,310.431 199.5,311.5 Z"/></g>
<g><path style="opacity:1" fill="#161616" d="M 254.5,319.5 C 254.5,318.833 254.5,318.167 254.5,317.5C 255.748,318.334 256.415,319.667 256.5,321.5C 256.333,322.833 256.167,324.167 256,325.5C 255.283,324.956 254.783,324.289 254.5,323.5C 252.052,322.527 249.385,322.194 246.5,322.5C 246.5,325.833 246.5,329.167 246.5,332.5C 247.833,332.5 249.167,332.5 250.5,332.5C 252.414,331.815 254.414,331.315 256.5,331C 257.252,330.329 257.586,329.496 257.5,328.5C 257.833,328.5 258.167,328.5 258.5,328.5C 259.492,328.328 260.158,328.662 260.5,329.5C 260.5,329.833 260.5,330.167 260.5,330.5C 259.609,331.261 258.942,332.261 258.5,333.5C 252.012,334.817 245.678,334.817 239.5,333.5C 239.833,333.5 240.167,333.5 240.5,333.5C 242.463,326.576 243.13,319.243 242.5,311.5C 245.762,310.452 251.095,310.119 258.5,310.5C 258.66,312.199 258.494,313.866 258,315.5C 255.107,312.85 251.607,311.85 247.5,312.5C 247.5,315.167 247.5,317.833 247.5,320.5C 250.059,320.802 252.393,320.468 254.5,319.5 Z"/></g>
<g><path style="opacity:1" fill="#171717" d="M 271.5,310.5 C 271.738,312.404 272.738,313.738 274.5,314.5C 277.516,317.52 280.183,320.854 282.5,324.5C 282.783,325.289 283.283,325.956 284,326.5C 284.499,321.511 284.666,316.511 284.5,311.5C 285.5,310.167 286.5,310.167 287.5,311.5C 287.831,319.528 287.498,327.528 286.5,335.5C 281.458,329.792 276.791,323.792 272.5,317.5C 272.44,316.957 272.107,316.624 271.5,316.5C 270.185,321.986 270.185,327.32 271.5,332.5C 271.38,333.586 270.713,334.253 269.5,334.5C 268.287,334.253 267.62,333.586 267.5,332.5C 268.653,326.347 268.82,320.014 268,313.5C 266.829,312.107 265.329,311.273 263.5,311C 266.146,310.503 268.813,310.336 271.5,310.5 Z"/></g>
<g><path style="opacity:1" fill="#161616" d="M 294.5,310.5 C 301.5,310.5 308.5,310.5 315.5,310.5C 315.662,312.527 315.495,314.527 315,316.5C 313.682,313.059 311.182,311.725 307.5,312.5C 306.872,319.913 307.539,326.913 309.5,333.5C 309.833,333.5 310.167,333.5 310.5,333.5C 307.167,334.833 303.833,334.833 300.5,333.5C 302.461,326.913 303.128,319.913 302.5,312.5C 298.842,311.68 296.509,313.013 295.5,316.5C 294.548,314.955 294.215,313.288 294.5,311.5C 294.5,311.167 294.5,310.833 294.5,310.5 Z"/></g>
<g><path style="opacity:1" fill="#0d0d0d" d="M 335.5,318.5 C 335.5,318.167 335.5,317.833 335.5,317.5C 336.748,318.334 337.415,319.667 337.5,321.5C 337.167,322.833 336.833,324.167 336.5,325.5C 335.818,324.757 335.151,324.091 334.5,323.5C 332.393,322.532 330.059,322.198 327.5,322.5C 327.5,325.833 327.5,329.167 327.5,332.5C 330.713,332.81 333.713,332.477 336.5,331.5C 336.833,331.5 337.167,331.5 337.5,331.5C 338.906,331.027 339.573,330.027 339.5,328.5C 340.623,327.243 341.289,327.576 341.5,329.5C 340.661,330.641 339.994,331.974 339.5,333.5C 333.012,334.817 326.678,334.817 320.5,333.5C 320.833,333.5 321.167,333.5 321.5,333.5C 322.822,330.232 323.489,326.565 323.5,322.5C 323.499,318.651 323.165,314.984 322.5,311.5C 326.761,310.484 332.428,310.151 339.5,310.5C 339.785,312.288 339.452,313.955 338.5,315.5C 337.713,314.758 337.047,313.925 336.5,313C 333.518,312.502 330.518,312.335 327.5,312.5C 327.5,315.167 327.5,317.833 327.5,320.5C 330.698,321.036 333.365,320.369 335.5,318.5 Z"/></g>
<g><path style="opacity:1" fill="#171717" d="M 362.5,311.5 C 363.5,311.833 364.167,312.5 364.5,313.5C 364.663,315.857 364.497,318.19 364,320.5C 359.014,321.877 358.514,323.877 362.5,326.5C 364.534,329.201 366.868,331.534 369.5,333.5C 367.372,334.629 365.039,334.796 362.5,334C 359.955,330.41 357.288,326.91 354.5,323.5C 353.194,326.98 353.194,330.313 354.5,333.5C 355.167,333.5 355.833,333.5 356.5,333.5C 352.833,334.833 349.167,334.833 345.5,333.5C 345.833,333.5 346.167,333.5 346.5,333.5C 348.463,326.576 349.13,319.243 348.5,311.5C 351.113,310.099 355.78,310.099 362.5,311.5 Z M 357.5,320.5 C 356.5,320.5 355.5,320.5 354.5,320.5C 354.5,319.5 354.5,318.5 354.5,317.5C 357.494,317.146 358.494,318.146 357.5,320.5 Z"/></g>
<g><path style="opacity:1" fill="#151515" d="M 373.5,311.5 C 378.689,310.298 384.023,310.298 389.5,311.5C 392.841,313.481 393.841,316.148 392.5,319.5C 389.805,323.011 386.138,324.344 381.5,323.5C 381.5,324.833 381.5,326.167 381.5,327.5C 381.5,329.167 381.5,330.833 381.5,332.5C 381.611,333.117 381.944,333.617 382.5,334C 379.304,334.805 376.304,334.638 373.5,333.5C 373.833,333.5 374.167,333.5 374.5,333.5C 376.463,326.576 377.13,319.243 376.5,311.5C 375.5,311.5 374.5,311.5 373.5,311.5 Z M 385.5,320.5 C 384.167,320.5 382.833,320.5 381.5,320.5C 381.343,319.127 381.51,317.793 382,316.5C 384.071,317.103 385.238,318.436 385.5,320.5 Z"/></g>
<g><path style="opacity:1" fill="#121212" d="M 411.5,310.5 C 412.609,310.557 413.609,310.89 414.5,311.5C 414.427,313.027 415.094,314.027 416.5,314.5C 416.545,318.578 414.878,321.744 411.5,324C 411.639,325.301 412.305,326.134 413.5,326.5C 413.427,328.027 414.094,329.027 415.5,329.5C 417.228,331.226 419.228,332.559 421.5,333.5C 419.034,334.634 416.367,334.801 413.5,334C 411.377,330.049 408.711,326.549 405.5,323.5C 404.197,326.645 404.197,329.645 405.5,332.5C 404.848,333.725 403.681,334.392 402,334.5C 400.833,334.333 399.667,334.167 398.5,334C 399.056,333.617 399.389,333.117 399.5,332.5C 400.654,326.013 400.821,319.346 400,312.5C 398.933,311.809 397.766,311.309 396.5,311C 401.489,310.501 406.489,310.334 411.5,310.5 Z M 409.5,320.5 C 409.167,320.5 408.833,320.5 408.5,320.5C 407.5,320.5 406.5,320.5 405.5,320.5C 406.427,315.378 407.761,315.378 409.5,320.5 Z"/></g>
<g><path style="opacity:1" fill="#171717" d="M 424.5,310.5 C 429.454,309.943 432.121,310.276 432.5,311.5C 432.5,318.833 432.5,326.167 432.5,333.5C 433.5,333.5 434.5,333.5 435.5,333.5C 432.038,334.482 428.371,334.815 424.5,334.5C 424.5,334.167 424.5,333.833 424.5,333.5C 425.5,333.5 426.5,333.5 427.5,333.5C 427.5,326.167 427.5,318.833 427.5,311.5C 426.209,311.737 425.209,311.404 424.5,310.5 Z"/></g>
<g><path style="opacity:1" fill="#282828" d="M 455.5,309.5 C 456.477,312.287 456.81,315.287 456.5,318.5C 455.082,316.813 453.749,314.98 452.5,313C 450.231,312.242 448.064,312.409 446,313.5C 445.227,315.352 445.727,316.686 447.5,317.5C 449.517,318.529 451.517,319.529 453.5,320.5C 453.5,321.167 453.833,321.5 454.5,321.5C 454.5,322.167 454.833,322.5 455.5,322.5C 458.841,324.481 459.841,327.148 458.5,330.5C 457.354,332.475 455.687,333.975 453.5,335C 449.752,335.093 446.086,335.26 442.5,335.5C 441.534,333.604 441.201,331.604 441.5,329.5C 441.5,328.5 441.5,327.5 441.5,326.5C 442.5,326.5 443.5,326.5 444.5,326.5C 444.89,331.534 447.556,333.367 452.5,332C 453.056,331.617 453.389,331.117 453.5,330.5C 453.657,329.127 453.49,327.793 453,326.5C 448.979,324.323 445.312,321.656 442,318.5C 441.51,317.207 441.343,315.873 441.5,314.5C 442.688,310.657 445.355,308.657 449.5,308.5C 451.409,309.348 453.409,309.682 455.5,309.5 Z M 444.5,326.5 C 447.607,327.553 450.607,328.886 453.5,330.5C 453.389,331.117 453.056,331.617 452.5,332C 447.556,333.367 444.89,331.534 444.5,326.5 Z"/></g>
<g><path style="opacity:1" fill="#1d1d1d" d="M 483.5,310.5 C 483.785,312.288 483.452,313.955 482.5,315.5C 481.713,314.758 481.047,313.925 480.5,313C 477.518,312.502 474.518,312.335 471.5,312.5C 471.5,315.167 471.5,317.833 471.5,320.5C 474.059,320.802 476.393,320.468 478.5,319.5C 479.151,318.909 479.818,318.243 480.5,317.5C 481.298,317.957 481.631,318.624 481.5,319.5C 481.5,320.167 481.5,320.833 481.5,321.5C 481.558,325.701 480.558,326.201 478.5,323C 476.19,322.503 473.857,322.337 471.5,322.5C 471.5,325.833 471.5,329.167 471.5,332.5C 473.5,332.5 475.5,332.5 477.5,332.5C 479.332,331.752 480.999,330.752 482.5,329.5C 483.65,328.15 484.317,328.316 484.5,330C 483.852,331.44 483.519,332.94 483.5,334.5C 477.31,334.823 471.31,334.49 465.5,333.5C 466.822,330.232 467.489,326.565 467.5,322.5C 467.499,318.651 467.165,314.984 466.5,311.5C 465.209,311.737 464.209,311.404 463.5,310.5C 470.167,309.167 476.833,309.167 483.5,310.5 Z"/></g>
<g><path style="opacity:0.859" fill="#7f7f7f" d="M 271.5,310.5 C 273.262,311.262 274.262,312.596 274.5,314.5C 272.738,313.738 271.738,312.404 271.5,310.5 Z"/></g>
<g><path style="opacity:0.004" fill="#fefffe" d="M 458.5,311.5 C 459.525,311.897 459.692,312.563 459,313.5C 458.536,312.906 458.369,312.239 458.5,311.5 Z"/></g>
<g><path style="opacity:0.083" fill="#f2f2f2" d="M 463.5,310.5 C 464.209,311.404 465.209,311.737 466.5,311.5C 466.5,317.833 466.5,324.167 466.5,330.5C 465.834,325.651 465.167,320.651 464.5,315.5C 462.393,314.087 462.06,312.42 463.5,310.5 Z"/></g>
<g><path style="opacity:0.09" fill="#cbcbcb" d="M 271.5,310.5 C 268.813,310.336 266.146,310.503 263.5,311C 265.329,311.273 266.829,312.107 268,313.5C 268.82,320.014 268.653,326.347 267.5,332.5C 267.595,327.113 267.095,321.78 266,316.5C 263.341,314.94 262.174,312.607 262.5,309.5C 265.713,309.19 268.713,309.523 271.5,310.5 Z"/></g>
<g><path style="opacity:0.181" fill="#9f9f9f" d="M 42.5,319.5 C 42.5,318.167 42.5,316.833 42.5,315.5C 40.8333,315.5 39.1667,315.5 37.5,315.5C 37.5,317.5 37.5,319.5 37.5,321.5C 36.5233,318.713 36.19,315.713 36.5,312.5C 42.3317,311.978 44.3317,314.312 42.5,319.5 Z"/></g>
<g><path style="opacity:0.333" fill="#b6b6b6" d="M 70.5,311.5 C 71.9063,311.973 72.573,312.973 72.5,314.5C 71.0937,314.027 70.427,313.027 70.5,311.5 Z"/></g>
<g><path style="opacity:0.167" fill="#c6c6c6" d="M 294.5,310.5 C 301.648,309.508 308.981,309.175 316.5,309.5C 316.742,312.681 316.742,315.681 316.5,318.5C 316,318.833 315.5,319.167 315,319.5C 313.14,317.799 310.973,316.799 308.5,316.5C 308.214,322.259 308.548,327.925 309.5,333.5C 307.539,326.913 306.872,319.913 307.5,312.5C 311.182,311.725 313.682,313.059 315,316.5C 315.495,314.527 315.662,312.527 315.5,310.5C 308.5,310.5 301.5,310.5 294.5,310.5 Z"/></g>
<g><path style="opacity:0.186" fill="#b1b1b1" d="M 385.5,320.5 C 384.081,321.451 382.415,321.784 380.5,321.5C 380.5,318.5 380.5,315.5 380.5,312.5C 387.363,312.321 389.029,314.987 385.5,320.5 Z M 385.5,320.5 C 385.238,318.436 384.071,317.103 382,316.5C 381.51,317.793 381.343,319.127 381.5,320.5C 382.833,320.5 384.167,320.5 385.5,320.5 Z"/></g>
<g><path style="opacity:0.18" fill="#c4c4c4" d="M 409.5,320.5 C 407.761,315.378 406.427,315.378 405.5,320.5C 406.5,320.5 407.5,320.5 408.5,320.5C 407.432,321.434 406.099,321.768 404.5,321.5C 404.5,318.5 404.5,315.5 404.5,312.5C 411.303,312.27 412.97,314.937 409.5,320.5 Z M 409.5,320.5 C 409.167,320.5 408.833,320.5 408.5,320.5C 407.5,320.5 406.5,320.5 405.5,320.5C 406.427,315.378 407.761,315.378 409.5,320.5 Z"/></g>
<g><path style="opacity:0.314" fill="#bababa" d="M 414.5,311.5 C 415.906,311.973 416.573,312.973 416.5,314.5C 415.094,314.027 414.427,313.027 414.5,311.5 Z"/></g>
<g><path style="opacity:0.071" fill="#dbdbdb" d="M 424.5,310.5 C 428.351,309.191 432.351,309.191 436.5,310.5C 437.803,312.589 437.303,314.256 435,315.5C 434.73,318.224 434.23,320.891 433.5,323.5C 434.773,325.984 434.773,328.484 433.5,331C 434.056,332.011 434.722,332.844 435.5,333.5C 434.5,333.5 433.5,333.5 432.5,333.5C 432.5,326.167 432.5,318.833 432.5,311.5C 432.121,310.276 429.454,309.943 424.5,310.5 Z"/></g>
<g><path style="opacity:0.643" fill="#757575" d="M 455.5,309.5 C 455.56,308.957 455.893,308.624 456.5,308.5C 457.484,311.428 457.817,314.428 457.5,317.5C 457.5,318.167 457.167,318.5 456.5,318.5C 456.81,315.287 456.477,312.287 455.5,309.5 Z"/></g>
<g><path style="opacity:0.06" fill="#e1e1e1" d="M 67.5,310.5 C 62.4889,310.334 57.4889,310.501 52.5,311C 53.7375,311.232 54.7375,311.732 55.5,312.5C 55.5,316.167 55.5,319.833 55.5,323.5C 55.183,319.253 53.5163,315.586 50.5,312.5C 50.8333,311.833 51.1667,311.167 51.5,310.5C 56.9864,309.185 62.3197,309.185 67.5,310.5 Z"/></g>
<g><path style="opacity:0.069" fill="#cecece" d="M 154.5,317.5 C 154.5,315.5 154.5,313.5 154.5,311.5C 152.833,310.167 151.167,310.167 149.5,311.5C 149.5,314.833 149.5,318.167 149.5,321.5C 146.167,321.5 142.833,321.5 139.5,321.5C 139.5,318.167 139.5,314.833 139.5,311.5C 139.11,310.205 136.443,310.039 131.5,311C 132.766,311.309 133.933,311.809 135,312.5C 135.821,319.346 135.654,326.013 134.5,332.5C 133.719,327.582 133.219,322.582 133,317.5C 132.028,315.695 130.861,314.028 129.5,312.5C 129.833,311.833 130.167,311.167 130.5,310.5C 134.783,309.508 139.116,309.174 143.5,309.5C 143.329,312.797 143.995,313.131 145.5,310.5C 149.783,309.508 154.116,309.174 158.5,309.5C 158.47,312.852 157.137,315.518 154.5,317.5 Z M 143.5,313.5 C 141.273,315.229 140.273,317.562 140.5,320.5C 143.187,320.664 145.854,320.497 148.5,320C 148.302,316.601 146.636,314.434 143.5,313.5 Z"/></g>
<g><path style="opacity:0.004" fill="#fefffe" d="M 169.5,315.5 C 168.833,314.167 168.833,314.167 169.5,315.5 Z"/></g>
<g><path style="opacity:0.082" fill="#cdcdcd" d="M 411.5,310.5 C 406.489,310.334 401.489,310.501 396.5,311C 397.766,311.309 398.933,311.809 400,312.5C 400.821,319.346 400.654,326.013 399.5,332.5C 399.078,324.622 397.745,316.955 395.5,309.5C 401.026,309.179 406.36,309.512 411.5,310.5 Z"/></g>
<g><path style="opacity:0.02" fill="#e6e6e6" d="M 28.5,311.5 C 28.8333,311.5 29.1667,311.5 29.5,311.5C 30.5,311.5 31.5,311.5 32.5,311.5C 32.5,318.833 32.5,326.167 32.5,333.5C 31.5,333.5 30.5,333.5 29.5,333.5C 29.1667,333.5 28.8333,333.5 28.5,333.5C 28.9175,332.778 29.5842,332.278 30.5,332C 30.5663,326.702 30.3997,321.202 30,315.5C 27.988,314.434 27.488,313.1 28.5,311.5 Z"/></g>
<g><path style="opacity:0.045" fill="#f0f0f0" d="M 424.5,310.5 C 425.209,311.404 426.209,311.737 427.5,311.5C 427.5,318.833 427.5,326.167 427.5,333.5C 426.5,333.5 425.5,333.5 424.5,333.5C 424.918,332.778 425.584,332.278 426.5,332C 425.281,329.717 425.281,327.384 426.5,325C 426.025,320.642 425.025,316.475 423.5,312.5C 423.543,311.584 423.876,310.917 424.5,310.5 Z"/></g>
<g><path style="opacity:0.51" fill="#797979" d="M 466.5,311.5 C 467.165,314.984 467.499,318.651 467.5,322.5C 467.489,326.565 466.822,330.232 465.5,333.5C 466.11,332.609 466.443,331.609 466.5,330.5C 466.5,324.167 466.5,317.833 466.5,311.5 Z"/></g>
<g><path style="opacity:0.475" fill="#909090" d="M 55.5,312.5 C 56.8333,319.167 56.8333,325.833 55.5,332.5C 54.9221,329.612 54.9221,326.612 55.5,323.5C 55.5,319.833 55.5,316.167 55.5,312.5 Z"/></g>
<g><path style="opacity:0.046" fill="#d3d3d3" d="M 199.5,311.5 C 196.592,310.431 193.592,310.264 190.5,311C 191.766,311.309 192.933,311.809 194,312.5C 194.821,319.346 194.654,326.013 193.5,332.5C 192.882,324.666 191.549,316.999 189.5,309.5C 193.329,308.931 196.663,309.598 199.5,311.5 Z"/></g>
<g><path style="opacity:0.068" fill="#e7e7e7" d="M 214.5,310.5 C 217.287,309.523 220.287,309.19 223.5,309.5C 223.97,312.346 223.137,314.679 221,316.5C 219.958,322.455 220.458,328.122 222.5,333.5C 221.5,333.5 220.5,333.5 219.5,333.5C 219.5,326.167 219.5,318.833 219.5,311.5C 220.552,311.649 221.552,311.483 222.5,311C 219.854,310.503 217.187,310.336 214.5,310.5 Z"/></g>
<g><path style="opacity:0.328" fill="#a5a5a5" d="M 322.5,311.5 C 323.165,314.984 323.499,318.651 323.5,322.5C 323.489,326.565 322.822,330.232 321.5,333.5C 322.11,332.609 322.443,331.609 322.5,330.5C 322.5,324.167 322.5,317.833 322.5,311.5 Z"/></g>
<g><path style="opacity:0.133" fill="#d6d6d6" d="M 338.5,328.5 C 337.833,328.5 337.5,328.833 337.5,329.5C 335.804,329.315 334.471,328.481 333.5,327C 331.866,326.506 330.199,326.34 328.5,326.5C 328.5,325.5 328.5,324.5 328.5,323.5C 330.5,323.5 332.5,323.5 334.5,323.5C 335.151,324.091 335.818,324.757 336.5,325.5C 336.833,324.167 337.167,322.833 337.5,321.5C 337.415,319.667 336.748,318.334 335.5,317.5C 334.726,316.853 333.726,316.52 332.5,316.5C 330.681,316.342 329.348,317.009 328.5,318.5C 330.859,319.714 333.192,319.714 335.5,318.5C 333.365,320.369 330.698,321.036 327.5,320.5C 327.5,317.833 327.5,315.167 327.5,312.5C 330.518,312.335 333.518,312.502 336.5,313C 337.047,313.925 337.713,314.758 338.5,315.5C 339.452,313.955 339.785,312.288 339.5,310.5C 332.428,310.151 326.761,310.484 322.5,311.5C 322.5,317.833 322.5,324.167 322.5,330.5C 321.674,326.018 321.174,321.351 321,316.5C 318.372,315.244 317.372,313.244 318,310.5C 318.333,310.833 318.667,311.167 319,311.5C 325.885,309.559 333.052,308.892 340.5,309.5C 339.963,315.85 339.296,322.183 338.5,328.5 Z M 335.5,317.5 C 335.5,317.833 335.5,318.167 335.5,318.5C 333.192,319.714 330.859,319.714 328.5,318.5C 329.348,317.009 330.681,316.342 332.5,316.5C 333.726,316.52 334.726,316.853 335.5,317.5 Z"/></g>
<g><path style="opacity:0.007" fill="#d2d2d2" d="M 357.5,320.5 C 356.432,321.434 355.099,321.768 353.5,321.5C 353.5,318.5 353.5,315.5 353.5,312.5C 357.459,311.578 359.792,313.078 360.5,317C 360.293,318.95 359.293,320.116 357.5,320.5 Z M 357.5,320.5 C 358.494,318.146 357.494,317.146 354.5,317.5C 354.5,318.5 354.5,319.5 354.5,320.5C 355.5,320.5 356.5,320.5 357.5,320.5 Z"/></g>
<g><path style="opacity:0.024" fill="#e6e6e6" d="M 372.5,311.5 C 372.833,311.5 373.167,311.5 373.5,311.5C 374.5,311.5 375.5,311.5 376.5,311.5C 377.13,319.243 376.463,326.576 374.5,333.5C 374.611,332.883 374.944,332.383 375.5,332C 374.691,326.583 374.191,321.083 374,315.5C 371.941,314.403 371.441,313.07 372.5,311.5 Z"/></g>
<g><path style="opacity:0.129" fill="#d0d0d0" d="M 483.5,310.5 C 484.634,312.966 484.801,315.633 484,318.5C 483.329,319.252 482.496,319.586 481.5,319.5C 481.631,318.624 481.298,317.957 480.5,317.5C 479.818,318.243 479.151,318.909 478.5,319.5C 476.393,320.468 474.059,320.802 471.5,320.5C 471.5,317.833 471.5,315.167 471.5,312.5C 474.518,312.335 477.518,312.502 480.5,313C 481.047,313.925 481.713,314.758 482.5,315.5C 483.452,313.955 483.785,312.288 483.5,310.5 Z M 478.5,319.5 C 476.473,319.662 474.473,319.495 472.5,319C 473.978,316.961 475.978,316.128 478.5,316.5C 478.5,317.5 478.5,318.5 478.5,319.5 Z"/></g>
<g><path style="opacity:0.094" fill="#dcdcdc" d="M 121.5,333.5 C 119.539,326.913 118.872,319.913 119.5,312.5C 123.158,311.68 125.491,313.013 126.5,316.5C 127.466,314.604 127.799,312.604 127.5,310.5C 120.5,310.5 113.5,310.5 106.5,310.5C 106.201,312.604 106.534,314.604 107.5,316.5C 108.509,313.013 110.842,311.68 114.5,312.5C 114.5,319.5 114.5,326.5 114.5,333.5C 113.5,333.5 112.5,333.5 111.5,333.5C 111.918,332.778 112.584,332.278 113.5,332C 112.856,326.884 112.189,321.718 111.5,316.5C 110.126,317.711 108.626,318.711 107,319.5C 106.228,319.355 105.561,319.022 105,318.5C 104.505,315.469 104.671,312.469 105.5,309.5C 113.167,309.5 120.833,309.5 128.5,309.5C 128.784,312.777 128.451,315.943 127.5,319C 126.5,319.667 125.5,319.667 124.5,319C 123.692,317.294 122.359,316.461 120.5,316.5C 120.214,322.259 120.548,327.925 121.5,333.5 Z"/></g>
<g><path style="opacity:0.018" fill="#eeeeee" d="M 169.5,317.5 C 169.672,318.492 169.338,319.158 168.5,319.5C 166.969,318.075 167.302,317.409 169.5,317.5 Z"/></g>
<g><path style="opacity:0.086" fill="#d8d8d8" d="M 362.5,311.5 C 355.78,310.099 351.113,310.099 348.5,311.5C 349.13,319.243 348.463,326.576 346.5,333.5C 347.618,327.916 347.785,322.249 347,316.5C 345.833,315.333 344.667,314.167 343.5,313C 344.337,311.989 344.67,310.822 344.5,309.5C 349.844,309.334 355.177,309.501 360.5,310C 361.416,310.278 362.082,310.778 362.5,311.5 Z"/></g>
<g><path style="opacity:0.092" fill="#dcdcdc" d="M 456.5,318.5 C 457.167,318.5 457.5,318.167 457.5,317.5C 458.573,318.251 458.74,319.251 458,320.5C 457.005,321.066 456.172,321.733 455.5,322.5C 454.833,322.5 454.5,322.167 454.5,321.5C 453.833,321.5 453.5,321.167 453.5,320.5C 452.883,318.771 451.883,317.271 450.5,316C 449.002,315.415 448.002,315.915 447.5,317.5C 445.727,316.686 445.227,315.352 446,313.5C 448.064,312.409 450.231,312.242 452.5,313C 453.749,314.98 455.082,316.813 456.5,318.5 Z"/></g>
<g><path style="opacity:0.047" fill="#e7e7e7" d="M 42.5,319.5 C 42.5,320.167 42.1667,320.5 41.5,320.5C 40.4324,321.434 39.099,321.768 37.5,321.5C 37.5,319.5 37.5,317.5 37.5,315.5C 39.1667,315.5 40.8333,315.5 42.5,315.5C 42.5,316.833 42.5,318.167 42.5,319.5 Z M 41.5,320.5 C 40.4376,315.233 39.4376,315.233 38.5,320.5C 39.5,320.5 40.5,320.5 41.5,320.5 Z"/></g>
<g><path style="opacity:0.292" fill="#c0c0c0" d="M 65.5,320.5 C 63.5744,315.497 62.2411,315.497 61.5,320.5C 62.5,320.5 63.5,320.5 64.5,320.5C 63.4324,321.434 62.099,321.768 60.5,321.5C 60.5,318.5 60.5,315.5 60.5,312.5C 67.3626,312.321 69.0293,314.987 65.5,320.5 Z M 65.5,320.5 C 65.1667,320.5 64.8333,320.5 64.5,320.5C 63.5,320.5 62.5,320.5 61.5,320.5C 62.2411,315.497 63.5744,315.497 65.5,320.5 Z"/></g>
<g><path style="opacity:0.096" fill="#c1c1c1" d="M 364.5,313.5 C 365.266,315.684 365.933,318.018 366.5,320.5C 365.533,322.79 364.2,324.79 362.5,326.5C 358.514,323.877 359.014,321.877 364,320.5C 364.497,318.19 364.663,315.857 364.5,313.5 Z"/></g>
<g><path style="opacity:0.099" fill="#cdcdcd" d="M 91.5,316.5 C 93.5669,318.318 94.9003,320.651 95.5,323.5C 93.2351,324.647 90.9018,324.814 88.5,324C 89.6422,321.55 90.6422,319.05 91.5,316.5 Z"/></g>
<g><path style="opacity:0.075" fill="#d5d5d5" d="M 416.5,314.5 C 418.266,319.069 417.266,323.069 413.5,326.5C 412.305,326.134 411.639,325.301 411.5,324C 414.878,321.744 416.545,318.578 416.5,314.5 Z"/></g>
<g><path style="opacity:0.106" fill="#d0d0d0" d="M 441.5,314.5 C 441.343,315.873 441.51,317.207 442,318.5C 445.312,321.656 448.979,324.323 453,326.5C 453.49,327.793 453.657,329.127 453.5,330.5C 450.607,328.886 447.607,327.553 444.5,326.5C 442.832,324.66 441.332,322.66 440,320.5C 439.059,318.011 439.559,316.011 441.5,314.5 Z"/></g>
<g><path style="opacity:0.445" fill="#858585" d="M 198.5,318.5 C 197.532,320.607 197.198,322.941 197.5,325.5C 197.5,327.833 197.5,330.167 197.5,332.5C 196.348,327.015 196.182,321.349 197,315.5C 198.039,316.244 198.539,317.244 198.5,318.5 Z"/></g>
<g><path style="opacity:0.618" fill="#5f5f5f" d="M 272.5,317.5 C 271.549,318.919 271.216,320.585 271.5,322.5C 271.5,325.833 271.5,329.167 271.5,332.5C 270.185,327.32 270.185,321.986 271.5,316.5C 272.107,316.624 272.44,316.957 272.5,317.5 Z"/></g>
<g><path style="opacity:0.118" fill="#d1d1d1" d="M 72.5,314.5 C 74.2662,319.069 73.2662,323.069 69.5,326.5C 68.3054,326.134 67.6387,325.301 67.5,324C 70.878,321.744 72.5447,318.578 72.5,314.5 Z"/></g>
<g><path style="opacity:0.092" fill="#c9c9c9" d="M 172.5,316.5 C 174.567,318.318 175.9,320.651 176.5,323.5C 174.604,324.466 172.604,324.799 170.5,324.5C 170.56,321.659 171.226,318.993 172.5,316.5 Z"/></g>
<g><path style="opacity:0.177" fill="#cecece" d="M 481.5,321.5 C 482.461,323.265 482.795,325.265 482.5,327.5C 481.542,327.953 480.708,328.619 480,329.5C 475.797,325.005 473.297,325.672 472.5,331.5C 474.415,331.216 476.081,331.549 477.5,332.5C 475.5,332.5 473.5,332.5 471.5,332.5C 471.5,329.167 471.5,325.833 471.5,322.5C 473.857,322.337 476.19,322.503 478.5,323C 480.558,326.201 481.558,325.701 481.5,321.5 Z"/></g>
<g><path style="opacity:0.184" fill="#d4d4d4" d="M 48.5,315.5 C 50.2575,322.633 47.2575,326.8 39.5,328C 38.9152,329.302 38.2485,330.469 37.5,331.5C 37.5,328.833 37.5,326.167 37.5,323.5C 44.3839,324.915 48.0506,322.248 48.5,315.5 Z"/></g>
<g><path style="opacity:0.169" fill="#cbcbcb" d="M 147.5,333.5 C 149.04,327.903 147.04,325.903 141.5,327.5C 140.306,329.516 140.306,331.516 141.5,333.5C 139.598,330.663 138.931,327.329 139.5,323.5C 142.833,323.5 146.167,323.5 149.5,323.5C 150.069,327.329 149.402,330.663 147.5,333.5 Z"/></g>
<g><path style="opacity:0.152" fill="#cdcdcd" d="M 392.5,319.5 C 393.37,321.032 393.036,322.532 391.5,324C 388.664,326.584 385.331,327.751 381.5,327.5C 381.5,326.167 381.5,324.833 381.5,323.5C 386.138,324.344 389.805,323.011 392.5,319.5 Z"/></g>
<g><path style="opacity:0.672" fill="#727272" d="M 254.5,323.5 C 252.167,323.5 249.833,323.5 247.5,323.5C 247.5,325.167 247.5,326.833 247.5,328.5C 247.5,329.5 247.5,330.5 247.5,331.5C 248.791,331.263 249.791,331.596 250.5,332.5C 249.167,332.5 247.833,332.5 246.5,332.5C 246.5,329.167 246.5,325.833 246.5,322.5C 249.385,322.194 252.052,322.527 254.5,323.5 Z"/></g>
<g><path style="opacity:0.047" fill="#dadada" d="M 257.5,328.5 C 256.883,328.611 256.383,328.944 256,329.5C 253.297,326.263 250.463,325.929 247.5,328.5C 247.5,326.833 247.5,325.167 247.5,323.5C 249.833,323.5 252.167,323.5 254.5,323.5C 254.783,324.289 255.283,324.956 256,325.5C 256.167,324.167 256.333,322.833 256.5,321.5C 256.415,319.667 255.748,318.334 254.5,317.5C 252.735,316.539 250.735,316.205 248.5,316.5C 248.5,317.5 248.5,318.5 248.5,319.5C 250.5,319.5 252.5,319.5 254.5,319.5C 252.393,320.468 250.059,320.802 247.5,320.5C 247.5,317.833 247.5,315.167 247.5,312.5C 251.607,311.85 255.107,312.85 258,315.5C 258.494,313.866 258.66,312.199 258.5,310.5C 251.095,310.119 245.762,310.452 242.5,311.5C 243.13,319.243 242.463,326.576 240.5,333.5C 240.923,332.735 241.257,331.902 241.5,331C 240.746,326.205 240.246,321.372 240,316.5C 239.535,315.069 238.701,313.903 237.5,313C 238.337,311.989 238.67,310.822 238.5,309.5C 245.5,309.5 252.5,309.5 259.5,309.5C 259.232,312.119 259.565,314.619 260.5,317C 259.874,317.75 259.374,318.584 259,319.5C 258.667,319.167 258.333,318.833 258,318.5C 257.502,321.817 257.335,325.15 257.5,328.5 Z M 254.5,317.5 C 254.5,318.167 254.5,318.833 254.5,319.5C 252.5,319.5 250.5,319.5 248.5,319.5C 248.5,318.5 248.5,317.5 248.5,316.5C 250.735,316.205 252.735,316.539 254.5,317.5 Z"/></g>
<g><path style="opacity:0.455" fill="#9d9d9d" d="M 334.5,323.5 C 332.5,323.5 330.5,323.5 328.5,323.5C 328.5,324.5 328.5,325.5 328.5,326.5C 328.5,328.167 328.5,329.833 328.5,331.5C 331.167,331.5 333.833,331.5 336.5,331.5C 333.713,332.477 330.713,332.81 327.5,332.5C 327.5,329.167 327.5,325.833 327.5,322.5C 330.059,322.198 332.393,322.532 334.5,323.5 Z"/></g>
<g><path style="opacity:0.518" fill="#959595" d="M 69.5,326.5 C 70.9063,326.973 71.573,327.973 71.5,329.5C 70.0937,329.027 69.427,328.027 69.5,326.5 Z"/></g>
<g><path style="opacity:0.145" fill="#b7b7b7" d="M 96.5,333.5 C 96.6107,332.883 96.944,332.383 97.5,332C 94.634,330.543 91.634,330.21 88.5,331C 87.4019,331.77 87.4019,332.603 88.5,333.5C 87.3509,333.209 86.6842,332.376 86.5,331C 86.6703,327.65 88.5037,326.15 92,326.5C 96.2833,325.781 98.45,327.614 98.5,332C 98.1639,333.03 97.4972,333.53 96.5,333.5 Z"/></g>
<g><path style="opacity:0.148" fill="#d2d2d2" d="M 212.5,333.5 C 213.694,331.516 213.694,329.516 212.5,327.5C 211.272,330.013 209.605,332.013 207.5,333.5C 209.362,327.752 211.529,322.085 214,316.5C 214.167,319.333 214.333,322.167 214.5,325C 214.481,328.252 213.814,331.085 212.5,333.5 Z"/></g>
<g><path style="opacity:0.106" fill="#d6d6d6" d="M 258.5,328.5 C 259.386,327.224 260.386,327.224 261.5,328.5C 261.376,329.107 261.043,329.44 260.5,329.5C 260.158,328.662 259.492,328.328 258.5,328.5 Z"/></g>
<g><path style="opacity:0.095" fill="#dbdbdb" d="M 294.5,311.5 C 294.215,313.288 294.548,314.955 295.5,316.5C 296.509,313.013 298.842,311.68 302.5,312.5C 303.128,319.913 302.461,326.913 300.5,333.5C 301.452,327.925 301.786,322.259 301.5,316.5C 299.071,316.585 297.071,317.585 295.5,319.5C 294.043,317.725 292.876,315.725 292,313.5C 291.311,314.357 290.478,315.023 289.5,315.5C 288.669,322.476 288.169,329.476 288,336.5C 287.439,337.022 286.772,337.355 286,337.5C 280.976,332.643 276.143,327.643 271.5,322.5C 271.216,320.585 271.549,318.919 272.5,317.5C 276.791,323.792 281.458,329.792 286.5,335.5C 287.498,327.528 287.831,319.528 287.5,311.5C 286.5,310.167 285.5,310.167 284.5,311.5C 284.666,316.511 284.499,321.511 284,326.5C 283.283,325.956 282.783,325.289 282.5,324.5C 283.634,322.034 283.801,319.367 283,316.5C 281.175,314.52 280.341,312.187 280.5,309.5C 284.226,309.177 287.893,309.511 291.5,310.5C 292.133,312.519 293.133,312.853 294.5,311.5 Z"/></g>
<g><path style="opacity:0.49" fill="#9a9a9a" d="M 413.5,326.5 C 414.906,326.973 415.573,327.973 415.5,329.5C 414.094,329.027 413.427,328.027 413.5,326.5 Z"/></g>
<g><path style="opacity:0.137" fill="#bdbdbd" d="M 77.5,333.5 C 78.0431,333.56 78.3764,333.893 78.5,334.5C 77.2713,335.281 75.938,335.781 74.5,336C 74.8333,336.333 75.1667,336.667 75.5,337C 74.1667,337.667 72.8333,337.667 71.5,337C 68.0611,334.566 64.8945,331.733 62,328.5C 61.3603,330.265 61.5269,331.932 62.5,333.5C 61.2227,332.306 60.5561,330.64 60.5,328.5C 60.8333,326.833 61.1667,325.167 61.5,323.5C 64.5162,326.52 67.1829,329.854 69.5,333.5C 72.3092,334.8 74.9759,334.8 77.5,333.5 Z"/></g>
<g><path style="opacity:0.073" fill="#c7c7c7" d="M 177.5,333.5 C 177.586,332.504 177.252,331.671 176.5,331C 174.19,330.503 171.857,330.337 169.5,330.5C 169.5,331.5 169.5,332.5 169.5,333.5C 168.5,333.5 167.5,333.5 166.5,333.5C 166.417,328.963 168.584,326.63 173,326.5C 176.941,326.203 179.108,328.037 179.5,332C 179.164,333.03 178.497,333.53 177.5,333.5 Z"/></g>
<g><path style="opacity:0.549" fill="#8b8b8b" d="M 338.5,328.5 C 338.833,328.5 339.167,328.5 339.5,328.5C 339.573,330.027 338.906,331.027 337.5,331.5C 337.5,330.833 337.5,330.167 337.5,329.5C 338.167,329.5 338.5,329.167 338.5,328.5 Z"/></g>
<g><path style="opacity:0.098" fill="#cacaca" d="M 198.5,318.5 C 200.623,323.25 202.623,328.084 204.5,333C 205.176,334.683 206.176,334.85 207.5,333.5C 207.5,334.5 207.5,335.5 207.5,336.5C 206.022,336.762 204.689,336.429 203.5,335.5C 201.977,331.771 199.977,328.438 197.5,325.5C 197.198,322.941 197.532,320.607 198.5,318.5 Z"/></g>
<g><path style="opacity:0.122" fill="#c7c7c7" d="M 369.5,333.5 C 370.043,333.56 370.376,333.893 370.5,334.5C 368.367,337.045 365.7,337.878 362.5,337C 360,334.5 357.5,332 355,329.5C 354.51,330.793 354.343,332.127 354.5,333.5C 353.194,330.313 353.194,326.98 354.5,323.5C 357.288,326.91 359.955,330.41 362.5,334C 365.039,334.796 367.372,334.629 369.5,333.5 Z"/></g>
<g><path style="opacity:0.453" fill="#949494" d="M 37.5,332.5 C 39.0898,332.628 40.4231,333.295 41.5,334.5C 41.0431,335.298 40.3764,335.631 39.5,335.5C 35.8333,335.5 32.1667,335.5 28.5,335.5C 28.5,334.833 28.5,334.167 28.5,333.5C 28.8333,333.5 29.1667,333.5 29.5,333.5C 32.3035,334.638 35.3035,334.805 38.5,334C 37.944,333.617 37.6107,333.117 37.5,332.5 Z"/></g>
<g><path style="opacity:0.499" fill="#999999" d="M 55.5,332.5 C 55.3893,333.117 55.056,333.617 54.5,334C 57.6965,334.805 60.6965,334.638 63.5,333.5C 64.0431,333.56 64.3764,333.893 64.5,334.5C 61.3154,338.515 57.3154,338.515 52.5,334.5C 53.0047,333.081 54.0047,332.415 55.5,332.5 Z"/></g>
<g><path style="opacity:0.465" fill="#929292" d="M 96.5,333.5 C 99.5,334.833 102.5,334.833 105.5,333.5C 107.379,333.393 107.712,333.893 106.5,335C 102.707,337.139 99.04,336.972 95.5,334.5C 95.6236,333.893 95.9569,333.56 96.5,333.5 Z"/></g>
<g><path style="opacity:0.433" fill="#a1a1a1" d="M 154.5,332.5 C 155.922,332.709 157.255,333.209 158.5,334C 154.363,338.438 150.03,338.605 145.5,334.5C 145.624,333.893 145.957,333.56 146.5,333.5C 149.304,334.638 152.304,334.805 155.5,334C 154.944,333.617 154.611,333.117 154.5,332.5 Z"/></g>
<g><path style="opacity:0.424" fill="#989898" d="M 193.5,332.5 C 192.141,334.009 192.641,334.676 195,334.5C 196.376,334.316 197.209,333.649 197.5,332.5C 198.643,332.908 199.643,333.575 200.5,334.5C 198.586,335.562 197.086,336.562 196,337.5C 193.825,337.166 191.992,336.166 190.5,334.5C 191.005,333.081 192.005,332.415 193.5,332.5 Z"/></g>
<g><path style="opacity:0.425" fill="#868686" d="M 260.5,330.5 C 260.598,332.553 259.931,334.22 258.5,335.5C 252.833,335.5 247.167,335.5 241.5,335.5C 240.325,335.719 239.325,335.386 238.5,334.5C 238.624,333.893 238.957,333.56 239.5,333.5C 245.678,334.817 252.012,334.817 258.5,333.5C 258.942,332.261 259.609,331.261 260.5,330.5 Z"/></g>
<g><path style="opacity:0.424" fill="#989898" d="M 267.5,332.5 C 267.62,333.586 268.287,334.253 269.5,334.5C 270.713,334.253 271.38,333.586 271.5,332.5C 272.995,332.415 273.995,333.081 274.5,334.5C 272.026,337.135 269.026,337.969 265.5,337C 265.833,336.667 266.167,336.333 266.5,336C 263.936,334.264 264.269,333.098 267.5,332.5 Z"/></g>
<g><path style="opacity:0.422" fill="#999999" d="M 381.5,332.5 C 382.995,332.415 383.995,333.081 384.5,334.5C 381.036,337.866 377.369,338.199 373.5,335.5C 372.227,334.743 372.227,334.077 373.5,333.5C 376.304,334.638 379.304,334.805 382.5,334C 381.944,333.617 381.611,333.117 381.5,332.5 Z"/></g>
<g><path style="opacity:0.414" fill="#9b9b9b" d="M 399.5,332.5 C 399.389,333.117 399.056,333.617 398.5,334C 399.667,334.167 400.833,334.333 402,334.5C 403.681,334.392 404.848,333.725 405.5,332.5C 406.643,332.908 407.643,333.575 408.5,334.5C 405.301,337.222 401.634,338.055 397.5,337C 397.833,336.667 398.167,336.333 398.5,336C 395.936,334.264 396.269,333.098 399.5,332.5 Z"/></g>
<g><path style="opacity:0.459" fill="#9e9e9e" d="M 482.5,327.5 C 483.5,327.5 484.5,327.5 485.5,327.5C 485.927,330.914 484.927,333.748 482.5,336C 477.959,335.87 473.459,336.036 469,336.5C 466.979,336.327 465.146,335.66 463.5,334.5C 463.957,333.702 464.624,333.369 465.5,333.5C 471.31,334.49 477.31,334.823 483.5,334.5C 483.519,332.94 483.852,331.44 484.5,330C 484.317,328.316 483.65,328.15 482.5,329.5C 482.5,328.833 482.5,328.167 482.5,327.5 Z"/></g>
<g><path style="opacity:0.123" fill="#c3c3c3" d="M 80.5,333.5 C 83.1667,334.833 85.8333,334.833 88.5,333.5C 89.7733,334.077 89.7733,334.743 88.5,335.5C 85.1949,338.388 82.1949,338.054 79.5,334.5C 79.6236,333.893 79.9569,333.56 80.5,333.5 Z"/></g>
<g><path style="opacity:0.115" fill="#bebebe" d="M 111.5,333.5 C 115.167,334.833 118.833,334.833 122.5,333.5C 123.043,333.56 123.376,333.893 123.5,334.5C 119.167,338.5 114.833,338.5 110.5,334.5C 110.624,333.893 110.957,333.56 111.5,333.5 Z"/></g>
<g><path style="opacity:0.09" fill="#b6b6b6" d="M 132.5,333.5 C 135.833,334.833 139.167,334.833 142.5,333.5C 143.043,333.56 143.376,333.893 143.5,334.5C 138.97,338.605 134.637,338.438 130.5,334C 131.094,333.536 131.761,333.369 132.5,333.5 Z"/></g>
<g><path style="opacity:0.169" fill="#bdbdbd" d="M 211.5,333.5 C 215.167,334.833 218.833,334.833 222.5,333.5C 222.736,334.716 222.736,335.883 222.5,337C 218.007,338.135 214.007,337.302 210.5,334.5C 210.624,333.893 210.957,333.56 211.5,333.5 Z"/></g>
<g><path style="opacity:0.094" fill="#cfcfcf" d="M 241.5,335.5 C 247.167,335.5 252.833,335.5 258.5,335.5C 257.223,336.898 255.557,337.564 253.5,337.5C 249.648,336.304 245.815,336.304 242,337.5C 240.316,337.317 240.15,336.65 241.5,335.5 Z"/></g>
<g><path style="opacity:0.165" fill="#b9b9b9" d="M 300.5,333.5 C 303.833,334.833 307.167,334.833 310.5,333.5C 311.043,333.56 311.376,333.893 311.5,334.5C 306.115,338.663 301.782,338.496 298.5,334C 299.094,333.536 299.761,333.369 300.5,333.5 Z"/></g>
<g><path style="opacity:0.035" fill="#b7b7b7" d="M 341.5,329.5 C 341.683,331.936 341.016,334.103 339.5,336C 333.833,336.667 328.167,336.667 322.5,336C 321.376,335.751 320.376,335.251 319.5,334.5C 319.624,333.893 319.957,333.56 320.5,333.5C 326.678,334.817 333.012,334.817 339.5,333.5C 339.994,331.974 340.661,330.641 341.5,329.5 Z"/></g>
<g><path style="opacity:0.067" fill="#c1c1c1" d="M 421.5,333.5 C 422.751,334.472 422.418,335.139 420.5,335.5C 417.868,336.44 415.202,336.607 412.5,336C 409.96,333.795 407.793,331.295 406,328.5C 405.51,329.793 405.343,331.127 405.5,332.5C 404.197,329.645 404.197,326.645 405.5,323.5C 408.711,326.549 411.377,330.049 413.5,334C 416.367,334.801 419.034,334.634 421.5,333.5 Z"/></g>
<g><path style="opacity:0.11" fill="#cacaca" d="M 441.5,329.5 C 441.201,331.604 441.534,333.604 442.5,335.5C 446.086,335.26 449.752,335.093 453.5,335C 455.687,333.975 457.354,332.475 458.5,330.5C 458.607,332.903 457.607,334.736 455.5,336C 451.294,336.261 447.127,336.761 443,337.5C 442.228,337.355 441.561,337.022 441,336.5C 439.876,333.558 439.542,330.558 440,327.5C 440.278,328.416 440.778,329.082 441.5,329.5 Z"/></g>
<g><path style="opacity:0.139" fill="#d9d9d9" d="M 28.5,335.5 C 32.1667,335.5 35.8333,335.5 39.5,335.5C 38.3064,336.777 36.6397,337.444 34.5,337.5C 32.8333,337.333 31.1667,337.167 29.5,337C 28.944,336.617 28.6107,336.117 28.5,335.5 Z"/></g>
<g><path style="opacity:0.071" fill="#c5c5c5" d="M 161.5,333.5 C 164.167,334.833 166.833,334.833 169.5,333.5C 170.043,333.56 170.376,333.893 170.5,334.5C 167.979,337.316 164.979,337.982 161.5,336.5C 160.347,335.313 160.347,334.313 161.5,333.5 Z"/></g>
<g><path style="opacity:0.035" fill="#b5b5b5" d="M 177.5,333.5 C 180.5,334.833 183.5,334.833 186.5,333.5C 187.043,333.56 187.376,333.893 187.5,334.5C 183.833,338.5 180.167,338.5 176.5,334.5C 176.624,333.893 176.957,333.56 177.5,333.5 Z"/></g>
<g><path style="opacity:0.055" fill="#c0c0c0" d="M 345.5,333.5 C 349.167,334.833 352.833,334.833 356.5,333.5C 357.043,333.56 357.376,333.893 357.5,334.5C 352.348,338.427 348.015,338.427 344.5,334.5C 344.624,333.893 344.957,333.56 345.5,333.5 Z"/></g>
<g><path style="opacity:0.092" fill="#bbbbbb" d="M 435.5,333.5 C 436.043,333.56 436.376,333.893 436.5,334.5C 433.186,337.247 429.52,337.913 425.5,336.5C 425.137,335.817 424.804,335.15 424.5,334.5C 428.371,334.815 432.038,334.482 435.5,333.5 Z"/></g>
<g><path style="opacity:0.218" fill="#c5c5c5" d="M 168.5,360.5 C 169.209,359.596 170.209,359.263 171.5,359.5C 171.5,364.5 171.5,369.5 171.5,374.5C 170.209,374.737 169.209,374.404 168.5,373.5C 169.8,371.777 170.467,369.61 170.5,367C 170.496,364.639 170.163,362.473 169.5,360.5C 169.167,360.5 168.833,360.5 168.5,360.5 Z"/></g>
<g><path style="opacity:0.924" fill="#565656" d="M 235.5,365.5 C 235.5,366.5 235.5,367.5 235.5,368.5C 235.5,368.833 235.5,369.167 235.5,369.5C 234.075,371.031 233.409,370.698 233.5,368.5C 232.218,361.85 229.218,360.85 224.5,365.5C 223.71,366.609 223.21,367.942 223,369.5C 222.506,367.866 222.34,366.199 222.5,364.5C 224.812,359.527 228.479,358.36 233.5,361C 235.037,362.11 235.703,363.61 235.5,365.5 Z"/></g>
<g><path style="opacity:1" fill="#0f0f0f" d="M 169.5,360.5 C 170.163,362.473 170.496,364.639 170.5,367C 170.467,369.61 169.8,371.777 168.5,373.5C 167.833,373.5 167.5,373.167 167.5,372.5C 169.183,368.742 169.849,364.742 169.5,360.5 Z"/></g>
<g><path style="opacity:0.903" fill="#3c3c3c" d="M 193.5,372.5 C 193.5,370.5 193.5,368.5 193.5,366.5C 193.5,365.833 193.833,365.5 194.5,365.5C 195.338,365.842 195.672,366.508 195.5,367.5C 195.284,372.727 196.951,373.56 200.5,370C 200.381,368.855 200.048,367.688 199.5,366.5C 198.737,365.732 197.737,365.232 196.5,365C 197.448,364.517 198.448,364.351 199.5,364.5C 200.163,362.958 200.83,361.291 201.5,359.5C 202.494,364.456 202.827,369.456 202.5,374.5C 199.813,374.664 197.146,374.497 194.5,374C 193.944,373.617 193.611,373.117 193.5,372.5 Z M 199.5,366.5 C 200.048,367.688 200.381,368.855 200.5,370C 196.951,373.56 195.284,372.727 195.5,367.5C 196.708,366.766 198.041,366.433 199.5,366.5 Z"/></g>
<g><path style="opacity:0.518" fill="#8f8f8f" d="M 330.5,359.5 C 331.5,359.5 332.5,359.5 333.5,359.5C 333.5,360.5 333.5,361.5 333.5,362.5C 332.5,362.5 331.5,362.5 330.5,362.5C 330.5,361.5 330.5,360.5 330.5,359.5 Z"/></g>
<g><path style="opacity:0.392" fill="#aaaaaa" d="M 346.5,359.5 C 347.995,359.415 348.995,360.081 349.5,361.5C 348.167,362.833 346.833,362.833 345.5,361.5C 345.863,360.817 346.196,360.15 346.5,359.5 Z"/></g>
<g><path style="opacity:0.751" fill="#656565" d="M 350.5,359.5 C 351.5,359.5 352.5,359.5 353.5,359.5C 353.5,364.5 353.5,369.5 353.5,374.5C 352.5,374.5 351.5,374.5 350.5,374.5C 350.5,369.5 350.5,364.5 350.5,359.5 Z"/></g>
<g><path style="opacity:0.192" fill="#ababab" d="M 354.5,359.5 C 355.5,359.5 356.5,359.5 357.5,359.5C 357.5,360.5 357.5,361.5 357.5,362.5C 356.5,362.5 355.5,362.5 354.5,362.5C 354.5,361.5 354.5,360.5 354.5,359.5 Z"/></g>
<g><path style="opacity:1" fill="#696969" d="M 117.5,364.5 C 116.508,364.328 115.842,364.662 115.5,365.5C 114.399,364.152 113.399,362.652 112.5,361C 113.025,360.308 113.692,359.808 114.5,359.5C 116.262,360.688 117.262,362.355 117.5,364.5 Z"/></g>
<g><path style="opacity:0.918" fill="#7e7e7e" d="M 121.5,365.5 C 121.158,364.662 120.492,364.328 119.5,364.5C 119.627,360.754 121.294,359.421 124.5,360.5C 123.725,362.396 122.725,364.063 121.5,365.5 Z"/></g>
<g><path style="opacity:1" fill="#060606" d="M 361.5,364.5 C 361.81,367.713 361.477,370.713 360.5,373.5C 361.036,370.302 360.369,367.635 358.5,365.5C 359.469,364.691 360.302,363.691 361,362.5C 361.464,363.094 361.631,363.761 361.5,364.5 Z"/></g>
<g><path style="opacity:0.995" fill="#242424" d="M 161.5,360.5 C 161.414,361.496 161.748,362.329 162.5,363C 160.795,366.168 159.962,369.668 160,373.5C 159.501,369.179 159.334,364.846 159.5,360.5C 160.167,359.167 160.833,359.167 161.5,360.5 Z"/></g>
<g><path style="opacity:0.231" fill="#dadada" d="M 138.5,364.5 C 136.631,366.635 135.964,369.302 136.5,372.5C 135.833,371.833 135.167,371.167 134.5,370.5C 134.5,369.5 134.5,368.5 134.5,367.5C 135.434,366.432 135.768,365.099 135.5,363.5C 136.791,363.263 137.791,363.596 138.5,364.5 Z"/></g>
<g><path style="opacity:0.191" fill="#dadada" d="M 150.5,366.5 C 150.918,365.778 151.584,365.278 152.5,365C 150.866,364.506 149.199,364.34 147.5,364.5C 147.5,367.5 147.5,370.5 147.5,373.5C 147.5,373.833 147.5,374.167 147.5,374.5C 146.518,371.038 146.185,367.371 146.5,363.5C 148.833,363.5 151.167,363.5 153.5,363.5C 153.5,364.5 153.5,365.5 153.5,366.5C 152.5,366.5 151.5,366.5 150.5,366.5 Z"/></g>
<g><path style="opacity:0.912" fill="#838383" d="M 181.5,366.5 C 180.604,365.494 179.938,365.494 179.5,366.5C 178.167,366.5 176.833,366.5 175.5,366.5C 175.5,365.833 175.167,365.5 174.5,365.5C 174.962,364.12 175.962,363.453 177.5,363.5C 179.653,363.561 180.986,364.561 181.5,366.5 Z"/></g>
<g><path style="opacity:0.909" fill="#858585" d="M 191.5,366.5 C 190.604,365.494 189.938,365.494 189.5,366.5C 188.167,366.5 186.833,366.5 185.5,366.5C 185.5,365.833 185.167,365.5 184.5,365.5C 184.962,364.12 185.962,363.453 187.5,363.5C 189.653,363.561 190.986,364.561 191.5,366.5 Z"/></g>
<g><path style="opacity:0.878" fill="#a4a4a4" d="M 199.5,364.5 C 198.448,364.351 197.448,364.517 196.5,365C 197.737,365.232 198.737,365.732 199.5,366.5C 198.041,366.433 196.708,366.766 195.5,367.5C 195.672,366.508 195.338,365.842 194.5,365.5C 195.879,363.403 197.545,363.07 199.5,364.5 Z"/></g>
<g><path style="opacity:0.155" fill="#e3e3e3" d="M 239.5,364.5 C 237.631,366.635 236.964,369.302 237.5,372.5C 236.833,371.167 236.167,369.833 235.5,368.5C 235.5,367.5 235.5,366.5 235.5,365.5C 236.156,364.722 236.989,364.056 238,363.5C 238.765,363.57 239.265,363.903 239.5,364.5 Z"/></g>
<g><path style="opacity:0.918" fill="#747474" d="M 279.5,366.5 C 277.683,368.51 275.683,368.843 273.5,367.5C 278.833,367.167 278.833,366.833 273.5,366.5C 273.5,365.833 273.167,365.5 272.5,365.5C 272.962,364.12 273.962,363.453 275.5,363.5C 277.653,363.561 278.986,364.561 279.5,366.5 Z"/></g>
<g><path style="opacity:0.192" fill="#d4d4d4" d="M 330.5,364.5 C 331.209,363.596 332.209,363.263 333.5,363.5C 333.815,367.371 333.482,371.038 332.5,374.5C 333.069,370.671 332.402,367.337 330.5,364.5 Z"/></g>
<g><path style="opacity:0.082" fill="#e7e7e7" d="M 348.5,364.5 C 346.598,367.337 345.931,370.671 346.5,374.5C 345.518,371.038 345.185,367.371 345.5,363.5C 346.791,363.263 347.791,363.596 348.5,364.5 Z"/></g>
<g><path style="opacity:0.165" fill="#d8d8d8" d="M 142.5,364.5 C 143.209,363.596 144.209,363.263 145.5,363.5C 145.815,367.371 145.482,371.038 144.5,374.5C 145.069,370.671 144.402,367.337 142.5,364.5 Z"/></g>
<g><path style="opacity:1" fill="#1e1e1e" d="M 150.5,366.5 C 150.5,367.167 150.167,367.5 149.5,367.5C 148.833,369.5 148.167,371.5 147.5,373.5C 147.5,370.5 147.5,367.5 147.5,364.5C 149.199,364.34 150.866,364.506 152.5,365C 151.584,365.278 150.918,365.778 150.5,366.5 Z"/></g>
<g><path style="opacity:0.872" fill="#676767" d="M 159.5,360.5 C 159.334,364.846 159.501,369.179 160,373.5C 159.962,369.668 160.795,366.168 162.5,363C 161.748,362.329 161.414,361.496 161.5,360.5C 163.803,362.978 165.969,365.645 168,368.5C 168.497,365.854 168.664,363.187 168.5,360.5C 168.833,360.5 169.167,360.5 169.5,360.5C 169.849,364.742 169.183,368.742 167.5,372.5C 165.674,370.853 164.34,368.853 163.5,366.5C 163.217,365.711 162.717,365.044 162,364.5C 161.502,367.817 161.335,371.15 161.5,374.5C 160.5,374.5 159.5,374.5 158.5,374.5C 158.181,369.637 158.514,364.97 159.5,360.5 Z"/></g>
<g><path style="opacity:1" fill="#040404" d="M 243.5,373.5 C 243.5,372.833 243.5,372.167 243.5,371.5C 244.314,369.369 244.814,367.036 245,364.5C 245.167,366 245.333,367.5 245.5,369C 245.431,370.986 244.765,372.486 243.5,373.5 Z"/></g>
<g><path style="opacity:0.152" fill="#dddddd" d="M 251.5,366.5 C 251.918,365.778 252.584,365.278 253.5,365C 251.866,364.506 250.199,364.34 248.5,364.5C 248.5,367.833 248.5,371.167 248.5,374.5C 247.518,371.038 247.185,367.371 247.5,363.5C 249.833,363.5 252.167,363.5 254.5,363.5C 254.5,364.5 254.5,365.5 254.5,366.5C 253.5,366.5 252.5,366.5 251.5,366.5 Z"/></g>
<g><path style="opacity:0.071" fill="#dbdbdb" d="M 287.5,364.5 C 288.885,365.302 288.718,365.969 287,366.5C 286.235,366.43 285.735,366.097 285.5,365.5C 286.492,365.672 287.158,365.338 287.5,364.5 Z"/></g>
<g><path style="opacity:0.118" fill="#dadada" d="M 328.5,364.5 C 329.043,364.56 329.376,364.893 329.5,365.5C 327.955,366.452 326.288,366.785 324.5,366.5C 325.833,365.833 327.167,365.167 328.5,364.5 Z"/></g>
<g><path style="opacity:0.616" fill="#505050" d="M 330.5,364.5 C 332.402,367.337 333.069,370.671 332.5,374.5C 330.598,371.663 329.931,368.329 330.5,364.5 Z"/></g>
<g><path style="opacity:1" fill="#1f1f1f" d="M 335.5,359.5 C 335.833,359.5 336.167,359.5 336.5,359.5C 336.401,362.237 336.735,364.904 337.5,367.5C 337.5,368.833 337.5,370.167 337.5,371.5C 337.5,372.167 337.5,372.833 337.5,373.5C 335.564,369.285 334.897,364.619 335.5,359.5 Z"/></g>
<g><path style="opacity:0.561" fill="#8d8d8d" d="M 358.5,365.5 C 360.369,367.635 361.036,370.302 360.5,373.5C 359.745,370.947 359.078,368.28 358.5,365.5 Z"/></g>
<g><path style="opacity:0.969" fill="#656565" d="M 117.5,364.5 C 118.167,367.167 118.833,367.167 119.5,364.5C 120.492,364.328 121.158,364.662 121.5,365.5C 120.701,368.43 120.368,371.43 120.5,374.5C 119.167,374.5 117.833,374.5 116.5,374.5C 116.632,371.43 116.299,368.43 115.5,365.5C 115.842,364.662 116.508,364.328 117.5,364.5 Z"/></g>
<g><path style="opacity:0.408" fill="#b1b1b1" d="M 117.5,364.5 C 118.167,364.5 118.833,364.5 119.5,364.5C 118.833,367.167 118.167,367.167 117.5,364.5 Z"/></g>
<g><path style="opacity:0.048" fill="#ebebeb" d="M 163.5,366.5 C 162.833,369.167 162.167,371.833 161.5,374.5C 161.335,371.15 161.502,367.817 162,364.5C 162.717,365.044 163.217,365.711 163.5,366.5 Z"/></g>
<g><path style="opacity:1" fill="#808080" d="M 211.5,373.5 C 208.946,374.388 206.279,374.721 203.5,374.5C 203.5,373.5 203.5,372.5 203.5,371.5C 205.331,372.052 206.997,372.052 208.5,371.5C 202.053,368.479 202.053,365.812 208.5,363.5C 210,363.453 211,364.119 211.5,365.5C 209.922,366.298 208.256,366.798 206.5,367C 210.283,367.609 211.95,369.776 211.5,373.5 Z"/></g>
<g><path style="opacity:1" fill="#404040" d="M 239.5,364.5 C 239.337,366.857 239.503,369.19 240,371.5C 241.145,372.684 242.312,372.684 243.5,371.5C 243.5,372.167 243.5,372.833 243.5,373.5C 242.833,373.5 242.5,373.833 242.5,374.5C 240.302,374.88 238.635,374.213 237.5,372.5C 236.964,369.302 237.631,366.635 239.5,364.5 Z"/></g>
<g><path style="opacity:0.25" fill="#b8b8b8" d="M 242.5,374.5 C 242.5,373.833 242.833,373.5 243.5,373.5C 244.765,372.486 245.431,370.986 245.5,369C 245.333,367.5 245.167,366 245,364.5C 244.814,367.036 244.314,369.369 243.5,371.5C 243.5,368.833 243.5,366.167 243.5,363.5C 244.5,363.5 245.5,363.5 246.5,363.5C 246.5,367.167 246.5,370.833 246.5,374.5C 245.167,374.5 243.833,374.5 242.5,374.5 Z"/></g>
<g><path style="opacity:0.086" fill="#dbdbdb" d="M 281.5,365.5 C 281.5,366.5 281.5,367.5 281.5,368.5C 280.833,368.833 280.167,369.167 279.5,369.5C 279.5,368.5 279.5,367.5 279.5,366.5C 280.167,366.167 280.833,365.833 281.5,365.5 Z"/></g>
<g><path style="opacity:0.303" fill="#b4b4b4" d="M 335.5,359.5 C 334.897,364.619 335.564,369.285 337.5,373.5C 338.167,373.5 338.5,373.833 338.5,374.5C 337.167,374.5 335.833,374.5 334.5,374.5C 334.179,369.305 334.513,364.305 335.5,359.5 Z"/></g>
<g><path style="opacity:0.816" fill="#3d3d3d" d="M 348.5,364.5 C 349.069,368.329 348.402,371.663 346.5,374.5C 345.931,370.671 346.598,367.337 348.5,364.5 Z"/></g>
<g><path style="opacity:0.256" fill="#969696" d="M 366.5,364.5 C 364.833,364.5 363.167,364.5 361.5,364.5C 361.631,363.761 361.464,363.094 361,362.5C 360.302,363.691 359.469,364.691 358.5,365.5C 357.523,368.287 357.19,371.287 357.5,374.5C 356.5,374.5 355.5,374.5 354.5,374.5C 354.5,370.833 354.5,367.167 354.5,363.5C 357.325,363.838 359.492,362.838 361,360.5C 362.461,362.468 364.295,363.802 366.5,364.5 Z"/></g>
<g><path style="opacity:1" fill="#323232" d="M 251.5,366.5 C 251.232,369.618 250.232,372.284 248.5,374.5C 248.5,371.167 248.5,367.833 248.5,364.5C 250.199,364.34 251.866,364.506 253.5,365C 252.584,365.278 251.918,365.778 251.5,366.5 Z"/></g>
<g><path style="opacity:0.988" fill="#646464" d="M 367.5,378.5 C 365.302,378.591 364.969,377.925 366.5,376.5C 366.414,375.504 366.748,374.671 367.5,374C 366.204,371.239 365.037,368.405 364,365.5C 362.648,367.594 362.148,369.927 362.5,372.5C 363.552,372.351 364.552,372.517 365.5,373C 363.852,374.677 362.185,374.844 360.5,373.5C 361.477,370.713 361.81,367.713 361.5,364.5C 363.167,364.5 364.833,364.5 366.5,364.5C 367.41,366.019 368.243,367.685 369,369.5C 369.837,367.649 370.671,365.816 371.5,364C 372.725,363.437 373.725,363.77 374.5,365C 372.52,369.797 370.187,374.297 367.5,378.5 Z"/></g>
<g><path style="opacity:0.583" fill="#767676" d="M 149.5,367.5 C 150.01,370.388 149.344,372.721 147.5,374.5C 147.5,374.167 147.5,373.833 147.5,373.5C 148.167,371.5 148.833,369.5 149.5,367.5 Z"/></g>
<g><path style="opacity:0.91" fill="#404040" d="M 174.5,365.5 C 175.167,365.5 175.5,365.833 175.5,366.5C 176.833,367.833 178.167,367.833 179.5,366.5C 179.938,365.494 180.604,365.494 181.5,366.5C 181.5,367.5 181.5,368.5 181.5,369.5C 180.833,369.5 180.167,369.5 179.5,369.5C 177.234,369.141 175.401,369.808 174,371.5C 173.506,369.866 173.34,368.199 173.5,366.5C 173.5,365.833 173.833,365.5 174.5,365.5 Z"/></g>
<g><path style="opacity:0.918" fill="#404040" d="M 184.5,365.5 C 185.167,365.5 185.5,365.833 185.5,366.5C 186.833,367.833 188.167,367.833 189.5,366.5C 189.938,365.494 190.604,365.494 191.5,366.5C 191.5,367.5 191.5,368.5 191.5,369.5C 190.833,369.5 190.167,369.5 189.5,369.5C 187.234,369.141 185.401,369.808 184,371.5C 183.506,369.866 183.34,368.199 183.5,366.5C 183.5,365.833 183.833,365.5 184.5,365.5 Z"/></g>
<g><path style="opacity:1" fill="#606060" d="M 268.5,366.5 C 267.833,365.167 267.167,363.833 266.5,362.5C 265.127,362.343 263.793,362.51 262.5,363C 263.684,364.145 263.684,365.312 262.5,366.5C 262.5,367.167 262.5,367.833 262.5,368.5C 262.5,370.5 262.5,372.5 262.5,374.5C 261.5,374.5 260.5,374.5 259.5,374.5C 259.197,369.57 259.531,364.737 260.5,360C 263.303,359.245 265.97,359.578 268.5,361C 269.807,362.943 269.807,364.777 268.5,366.5 Z M 266.5,362.5 C 266.833,365.5 265.5,366.833 262.5,366.5C 263.684,365.312 263.684,364.145 262.5,363C 263.793,362.51 265.127,362.343 266.5,362.5 Z"/></g>
<g><path style="opacity:0.919" fill="#252525" d="M 272.5,365.5 C 273.167,365.5 273.5,365.833 273.5,366.5C 273.5,366.833 273.5,367.167 273.5,367.5C 275.683,368.843 277.683,368.51 279.5,366.5C 279.5,367.5 279.5,368.5 279.5,369.5C 279.167,369.5 278.833,369.5 278.5,369.5C 275.921,369.083 273.754,369.75 272,371.5C 271.506,369.866 271.34,368.199 271.5,366.5C 271.5,365.833 271.833,365.5 272.5,365.5 Z"/></g>
<g><path style="opacity:0.859" fill="#707070" d="M 287.5,364.5 C 287.158,365.338 286.492,365.672 285.5,365.5C 284.711,365.783 284.044,366.283 283.5,367C 287.461,367.608 288.961,369.774 288,373.5C 286.301,374.406 284.467,374.739 282.5,374.5C 281.494,373.604 281.494,372.938 282.5,372.5C 283.675,372.719 284.675,372.386 285.5,371.5C 284.099,370.479 282.765,369.479 281.5,368.5C 281.5,367.5 281.5,366.5 281.5,365.5C 283.32,363.539 285.32,363.206 287.5,364.5 Z"/></g>
<g><path style="opacity:0.634" fill="#6a6a6a" d="M 318.5,367.5 C 319.167,369.5 319.833,371.5 320.5,373.5C 320.5,373.833 320.5,374.167 320.5,374.5C 318.656,372.721 317.99,370.388 318.5,367.5 Z"/></g>
<g><path style="opacity:1" fill="#101010" d="M 320.5,366.5 C 320.5,368.833 320.5,371.167 320.5,373.5C 319.833,371.5 319.167,369.5 318.5,367.5C 318.5,367.167 318.5,366.833 318.5,366.5C 318.938,365.494 319.604,365.494 320.5,366.5 Z"/></g>
<g><path style="opacity:0.173" fill="#dedede" d="M 320.5,366.5 C 321.167,368.5 321.833,370.5 322.5,372.5C 322.5,372.833 322.5,373.167 322.5,373.5C 321.833,373.833 321.167,374.167 320.5,374.5C 320.5,374.167 320.5,373.833 320.5,373.5C 320.5,371.167 320.5,368.833 320.5,366.5 Z"/></g>
<g><path style="opacity:0.89" fill="#737373" d="M 328.5,364.5 C 327.167,365.167 325.833,365.833 324.5,366.5C 325.848,367.601 327.348,368.601 329,369.5C 329.667,370.833 329.667,372.167 329,373.5C 326.726,374.811 324.56,374.811 322.5,373.5C 322.5,373.167 322.5,372.833 322.5,372.5C 323.762,372.093 325.095,371.76 326.5,371.5C 325.672,370.585 324.672,369.919 323.5,369.5C 322.167,367.833 322.167,366.167 323.5,364.5C 325.316,363.265 326.983,363.265 328.5,364.5 Z"/></g>
<g><path style="opacity:0.925" fill="#696969" d="M 336.5,359.5 C 337.302,360.952 337.802,362.618 338,364.5C 342.27,362.755 344.437,364.255 344.5,369C 344.58,373.086 342.58,374.919 338.5,374.5C 338.5,373.833 338.167,373.5 337.5,373.5C 337.5,372.833 337.5,372.167 337.5,371.5C 340.033,372.854 341.7,372.02 342.5,369C 341.347,366.491 339.68,365.991 337.5,367.5C 336.735,364.904 336.401,362.237 336.5,359.5 Z"/></g>
<g><path style="opacity:0.918" fill="#656565" d="M 134.5,367.5 C 134.5,368.5 134.5,369.5 134.5,370.5C 133.172,374.254 130.506,375.421 126.5,374C 122.111,369.061 123.111,365.561 129.5,363.5C 132.225,363.676 133.892,365.01 134.5,367.5 Z M 131.5,366.5 C 131.675,368.621 131.341,370.621 130.5,372.5C 128.436,372.238 127.103,371.071 126.5,369C 127.617,367.108 129.284,366.275 131.5,366.5 Z"/></g>
<g><path style="opacity:0.024" fill="#d8d8d8" d="M 131.5,366.5 C 132.147,367.274 132.48,368.274 132.5,369.5C 132.36,371.03 131.693,372.03 130.5,372.5C 131.341,370.621 131.675,368.621 131.5,366.5 Z"/></g>
<g><path style="opacity:0.024" fill="#f2f2f2" d="M 262.5,368.5 C 263.791,368.263 264.791,368.596 265.5,369.5C 263.972,370.802 262.972,372.469 262.5,374.5C 262.5,372.5 262.5,370.5 262.5,368.5 Z"/></g>
<g><path style="opacity:0.55" fill="#929292" d="M 320.5,366.5 C 319.604,365.494 318.938,365.494 318.5,366.5C 317.041,366.433 315.708,366.766 314.5,367.5C 314.5,369.833 314.5,372.167 314.5,374.5C 313.5,374.5 312.5,374.5 311.5,374.5C 311.5,370.833 311.5,367.167 311.5,363.5C 313.477,364.149 315.31,364.149 317,363.5C 318.95,363.707 320.116,364.707 320.5,366.5 Z"/></g>
<g><path style="opacity:1" fill="#060606" d="M 314.5,367.5 C 313.691,369.292 313.191,371.292 313,373.5C 312.333,370.5 312.333,367.5 313,364.5C 314.039,365.244 314.539,366.244 314.5,367.5 Z"/></g>
<g><path style="opacity:0.991" fill="#4a4a4a" d="M 451.5,370.5 C 428.167,370.5 404.833,370.5 381.5,370.5C 392.814,369.168 404.48,368.501 416.5,368.5C 428.167,368.667 439.833,368.833 451.5,369C 452.738,369.69 452.738,370.19 451.5,370.5 Z"/></g>
<g><path style="opacity:0.091" fill="#a8a8a8" d="M 31.5,368.5 C 56.9823,368.01 82.3157,368.51 107.5,370C 82.3157,371.49 56.9823,371.99 31.5,371.5C 31.5,370.5 31.5,369.5 31.5,368.5 Z"/></g>
<g><path style="opacity:1" fill="#555555" d="M 266.5,362.5 C 267.167,363.833 267.833,365.167 268.5,366.5C 267.399,368.988 268.066,370.988 270.5,372.5C 270.157,374.225 269.157,374.725 267.5,374C 266.418,372.67 265.751,371.17 265.5,369.5C 264.791,368.596 263.791,368.263 262.5,368.5C 262.5,367.833 262.5,367.167 262.5,366.5C 265.5,366.833 266.833,365.5 266.5,362.5 Z"/></g>
<g><path style="opacity:0.09" fill="#cfcfcf" d="M 298.5,365.5 C 299.167,366.167 299.833,366.833 300.5,367.5C 300.5,369.167 300.5,370.833 300.5,372.5C 299.833,372.5 299.167,372.5 298.5,372.5C 298.5,370.167 298.5,367.833 298.5,365.5 Z"/></g>
<g><path style="opacity:0.09" fill="#e0e0e0" d="M 381.5,370.5 C 404.833,370.5 428.167,370.5 451.5,370.5C 426.672,371.498 401.672,371.831 376.5,371.5C 376.5,370.5 376.5,369.5 376.5,368.5C 378.514,368.392 380.18,369.058 381.5,370.5 Z"/></g>
<g><path style="opacity:1" fill="#3e3e3e" d="M 138.5,364.5 C 138.337,366.857 138.503,369.19 139,371.5C 140,372.833 141,372.833 142,371.5C 142.497,369.19 142.663,366.857 142.5,364.5C 144.402,367.337 145.069,370.671 144.5,374.5C 142.143,374.663 139.81,374.497 137.5,374C 136.944,373.617 136.611,373.117 136.5,372.5C 135.964,369.302 136.631,366.635 138.5,364.5 Z"/></g>
<g><path style="opacity:0.97" fill="#858585" d="M 173.5,366.5 C 173.34,368.199 173.506,369.866 174,371.5C 175.401,369.808 177.234,369.141 179.5,369.5C 178.391,370.29 177.058,370.79 175.5,371C 176.99,372.772 178.657,372.939 180.5,371.5C 181.711,372.274 181.711,373.107 180.5,374C 173.668,375.342 171.335,372.842 173.5,366.5 Z"/></g>
<g><path style="opacity:0.014" fill="#e6e6e6" d="M 277.5,372.5 C 279.167,371.167 280.833,371.167 282.5,372.5C 281.494,372.938 281.494,373.604 282.5,374.5C 281.222,374.218 280.222,373.551 279.5,372.5C 278.833,372.5 278.167,372.5 277.5,372.5 Z"/></g>
<g><path style="opacity:0.984" fill="#7c7c7c" d="M 211.5,373.5 C 212.156,372.722 212.989,372.056 214,371.5C 214.5,371.833 215,372.167 215.5,372.5C 215.047,374.565 214.047,376.232 212.5,377.5C 211.571,376.311 211.238,374.978 211.5,373.5 Z"/></g>
<g><path style="opacity:0.657" fill="#757575" d="M 222.5,364.5 C 222.34,366.199 222.506,367.866 223,369.5C 223.21,367.942 223.71,366.609 224.5,365.5C 224.013,370.176 226.013,372.343 230.5,372C 231.636,370.855 232.636,369.688 233.5,368.5C 233.409,370.698 234.075,371.031 235.5,369.5C 233.79,374.183 230.457,375.683 225.5,374C 221.697,371.633 220.697,368.466 222.5,364.5 Z"/></g>
<g><path style="opacity:0.859" fill="#727272" d="M 298.5,365.5 C 298.5,367.833 298.5,370.167 298.5,372.5C 297.01,374.28 295.01,374.946 292.5,374.5C 292.768,376.099 292.434,377.432 291.5,378.5C 291.44,379.043 291.107,379.376 290.5,379.5C 289.167,374.167 289.167,368.833 290.5,363.5C 293.385,362.888 296.051,363.554 298.5,365.5 Z M 292.5,366.5 C 293.833,366.5 295.167,366.5 296.5,366.5C 296.66,368.199 296.494,369.866 296,371.5C 294.855,372.684 293.688,372.684 292.5,371.5C 292.5,369.833 292.5,368.167 292.5,366.5 Z"/></g>
<g><path style="opacity:1" fill="#2e2e2e" d="M 292.5,366.5 C 292.5,368.167 292.5,369.833 292.5,371.5C 291.781,373.764 291.448,376.097 291.5,378.5C 290.189,374.317 290.189,369.984 291.5,365.5C 292.107,365.624 292.44,365.957 292.5,366.5 Z"/></g>
<g><path style="opacity:0.541" fill="#989898" d="M 181.5,366.5 C 182.167,366.5 182.833,366.5 183.5,366.5C 183.34,368.199 183.506,369.866 184,371.5C 185.401,369.808 187.234,369.141 189.5,369.5C 188.391,370.29 187.058,370.79 185.5,371C 187.842,372.745 190.175,372.579 192.5,370.5C 192.376,369.893 192.043,369.56 191.5,369.5C 191.5,368.5 191.5,367.5 191.5,366.5C 192.167,366.5 192.833,366.5 193.5,366.5C 193.5,368.5 193.5,370.5 193.5,372.5C 190.744,374.212 187.744,374.712 184.5,374C 183.219,372.591 182.219,371.091 181.5,369.5C 181.5,368.5 181.5,367.5 181.5,366.5 Z M 189.5,369.5 C 190.167,369.5 190.833,369.5 191.5,369.5C 192.043,369.56 192.376,369.893 192.5,370.5C 190.175,372.579 187.842,372.745 185.5,371C 187.058,370.79 188.391,370.29 189.5,369.5 Z"/></g>
<g><path style="opacity:0.653" fill="#8f8f8f" d="M 271.5,366.5 C 271.34,368.199 271.506,369.866 272,371.5C 273.754,369.75 275.921,369.083 278.5,369.5C 277.048,370.302 275.382,370.802 273.5,371C 274.563,372.188 275.897,372.688 277.5,372.5C 278.167,372.5 278.833,372.5 279.5,372.5C 276.691,375.025 273.691,375.025 270.5,372.5C 270.205,370.265 270.539,368.265 271.5,366.5 Z"/></g>
<g><path style="opacity:0.627" fill="#696969" d="M 300.5,372.5 C 300.5,370.833 300.5,369.167 300.5,367.5C 302.725,363.155 305.892,362.488 310,365.5C 311.387,374.292 308.22,376.625 300.5,372.5 Z M 303.5,366.5 C 304.833,366.5 306.167,366.5 307.5,366.5C 307.66,368.199 307.494,369.866 307,371.5C 304.522,372.804 303.022,371.97 302.5,369C 302.743,368.098 303.077,367.265 303.5,366.5 Z"/></g>
<g><path style="opacity:0.639" fill="#b9b9b9" d="M 366.5,376.5 C 364.969,377.925 365.302,378.591 367.5,378.5C 366.151,379.797 364.818,379.63 363.5,378C 364.244,376.961 365.244,376.461 366.5,376.5 Z"/></g>
<g><path style="opacity:0.855" fill="#7a7a7a" d="M 500.5,439.5 C 500.5,440.167 500.5,440.833 500.5,441.5C 499.833,441.5 499.167,441.5 498.5,441.5C 498.833,440.5 499.5,439.833 500.5,439.5 Z"/></g>
</svg>
